<svg width="25" height="25" viewBox="0 0 25 25" fill="none" xmlns="http://www.w3.org/2000/svg">
<g clip-path="url(#clip0_0_664)">
<path d="M12.465 20.8018C17.4335 20.8018 21.4613 16.7741 21.4613 11.8056C21.4613 6.83705 17.4335 2.80933 12.465 2.80933C7.49647 2.80933 3.46875 6.83705 3.46875 11.8056C3.46875 16.7741 7.49647 20.8018 12.465 20.8018Z" fill="white" fill-opacity="0.01"/>
<path d="M8.86719 13.6053C8.86719 13.6053 10.2168 15.4048 12.4662 15.4048C14.7155 15.4048 16.0651 13.6053 16.0651 13.6053M15.6152 9.10661C15.6152 9.22592 15.5679 9.34035 15.4835 9.42472C15.3991 9.50908 15.2847 9.55648 15.1654 9.55648C15.0461 9.55648 14.9316 9.50908 14.8473 9.42472C14.7629 9.34035 14.7155 9.22592 14.7155 9.10661C14.7155 8.9873 14.7629 8.87287 14.8473 8.7885C14.9316 8.70414 15.0461 8.65674 15.1654 8.65674C15.2847 8.65674 15.3991 8.70414 15.4835 8.7885C15.5679 8.87287 15.6152 8.9873 15.6152 9.10661ZM10.2168 9.10661C10.2168 9.22592 10.1694 9.34035 10.085 9.42472C10.0007 9.50908 9.88624 9.55648 9.76693 9.55648C9.64762 9.55648 9.53319 9.50908 9.44882 9.42472C9.36446 9.34035 9.31706 9.22592 9.31706 9.10661C9.31706 8.9873 9.36446 8.87287 9.44882 8.7885C9.53319 8.70414 9.64762 8.65674 9.76693 8.65674C9.88624 8.65674 10.0007 8.70414 10.085 8.7885C10.1694 8.87287 10.2168 8.9873 10.2168 9.10661Z" fill="white" fill-opacity="0.01"/>
<path d="M8.8665 13.6048C8.8665 13.6048 10.2159 15.4041 12.465 15.4041C14.7141 15.4041 16.0635 13.6048 16.0635 13.6048M15.1639 9.1067H15.1729M9.76613 9.1067H9.77512M21.4613 11.8056C21.4613 16.7741 17.4335 20.8018 12.465 20.8018C7.49647 20.8018 3.46875 16.7741 3.46875 11.8056C3.46875 6.83705 7.49647 2.80933 12.465 2.80933C17.4335 2.80933 21.4613 6.83705 21.4613 11.8056ZM15.6137 9.1067C15.6137 9.226 15.5663 9.34041 15.4819 9.42477C15.3976 9.50912 15.2832 9.55651 15.1639 9.55651C15.0446 9.55651 14.9302 9.50912 14.8458 9.42477C14.7615 9.34041 14.7141 9.226 14.7141 9.1067C14.7141 8.9874 14.7615 8.87299 14.8458 8.78864C14.9302 8.70428 15.0446 8.65689 15.1639 8.65689C15.2832 8.65689 15.3976 8.70428 15.4819 8.78864C15.5663 8.87299 15.6137 8.9874 15.6137 9.1067ZM10.2159 9.1067C10.2159 9.226 10.1685 9.34041 10.0842 9.42477C9.99983 9.50912 9.88542 9.55651 9.76613 9.55651C9.64683 9.55651 9.53242 9.50912 9.44806 9.42477C9.3637 9.34041 9.31631 9.226 9.31631 9.1067C9.31631 8.9874 9.3637 8.87299 9.44806 8.78864C9.53242 8.70428 9.64683 8.65689 9.76613 8.65689C9.88542 8.65689 9.99983 8.70428 10.0842 8.78864C10.1685 8.87299 10.2159 8.9874 10.2159 9.1067Z" stroke="#6C737F" stroke-width="1.99943" stroke-linecap="round" stroke-linejoin="round"/>
</g>
<defs>
<clipPath id="clip0_0_664">
<rect width="23.99" height="23.99" fill="white" transform="translate(0.470703 0.810059)"/>
</clipPath>
</defs>
</svg>
