<svg width="25" height="25" viewBox="0 0 25 25" fill="none" xmlns="http://www.w3.org/2000/svg">
<g clip-path="url(#clip0_0_529)">
<path d="M12.465 20.2517C17.4335 20.2517 21.4613 16.224 21.4613 11.2555C21.4613 6.28694 17.4335 2.25922 12.465 2.25922C7.49647 2.25922 3.46875 6.28694 3.46875 11.2555C3.46875 16.224 7.49647 20.2517 12.465 20.2517Z" fill="white" fill-opacity="0.01"/>
<path d="M8.86719 13.0554C8.86719 13.0554 10.2168 14.8549 12.4662 14.8549C14.7155 14.8549 16.0651 13.0554 16.0651 13.0554M15.6152 8.55668C15.6152 8.676 15.5679 8.79042 15.4835 8.87479C15.3991 8.95916 15.2847 9.00655 15.1654 9.00655C15.0461 9.00655 14.9316 8.95916 14.8473 8.87479C14.7629 8.79042 14.7155 8.676 14.7155 8.55668C14.7155 8.43737 14.7629 8.32294 14.8473 8.23858C14.9316 8.15421 15.0461 8.10681 15.1654 8.10681C15.2847 8.10681 15.3991 8.15421 15.4835 8.23858C15.5679 8.32294 15.6152 8.43737 15.6152 8.55668ZM10.2168 8.55668C10.2168 8.676 10.1694 8.79042 10.085 8.87479C10.0007 8.95916 9.88624 9.00655 9.76693 9.00655C9.64762 9.00655 9.53319 8.95916 9.44882 8.87479C9.36446 8.79042 9.31706 8.676 9.31706 8.55668C9.31706 8.43737 9.36446 8.32294 9.44882 8.23858C9.53319 8.15421 9.64762 8.10681 9.76693 8.10681C9.88624 8.10681 10.0007 8.15421 10.085 8.23858C10.1694 8.32294 10.2168 8.43737 10.2168 8.55668Z" fill="white" fill-opacity="0.01"/>
<path d="M8.8665 13.0547C8.8665 13.0547 10.2159 14.854 12.465 14.854C14.7141 14.854 16.0635 13.0547 16.0635 13.0547M15.1639 8.55659H15.1729M9.76613 8.55659H9.77512M21.4613 11.2555C21.4613 16.224 17.4335 20.2517 12.465 20.2517C7.49647 20.2517 3.46875 16.224 3.46875 11.2555C3.46875 6.28694 7.49647 2.25922 12.465 2.25922C17.4335 2.25922 21.4613 6.28694 21.4613 11.2555ZM15.6137 8.55659C15.6137 8.67589 15.5663 8.7903 15.4819 8.87466C15.3976 8.95901 15.2832 9.0064 15.1639 9.0064C15.0446 9.0064 14.9302 8.95901 14.8458 8.87466C14.7615 8.7903 14.7141 8.67589 14.7141 8.55659C14.7141 8.43729 14.7615 8.32288 14.8458 8.23853C14.9302 8.15417 15.0446 8.10678 15.1639 8.10678C15.2832 8.10678 15.3976 8.15417 15.4819 8.23853C15.5663 8.32288 15.6137 8.43729 15.6137 8.55659ZM10.2159 8.55659C10.2159 8.67589 10.1685 8.7903 10.0842 8.87466C9.99983 8.95901 9.88542 9.0064 9.76613 9.0064C9.64683 9.0064 9.53242 8.95901 9.44806 8.87466C9.3637 8.7903 9.31631 8.67589 9.31631 8.55659C9.31631 8.43729 9.3637 8.32288 9.44806 8.23853C9.53242 8.15417 9.64683 8.10678 9.76613 8.10678C9.88542 8.10678 9.99983 8.15417 10.0842 8.23853C10.1685 8.32288 10.2159 8.43729 10.2159 8.55659Z" stroke="#6C737F" stroke-width="1.99943" stroke-linecap="round" stroke-linejoin="round"/>
</g>
<defs>
<clipPath id="clip0_0_529">
<rect width="23.99" height="23.99" fill="white" transform="translate(0.470703 0.260071)"/>
</clipPath>
</defs>
</svg>
