<svg width="24" height="25" viewBox="0 0 24 25" fill="none" xmlns="http://www.w3.org/2000/svg">
<g clip-path="url(#clip0_0_553)">
<path d="M16.512 8.77641C18.0025 8.77641 19.2108 7.56812 19.2108 6.07754C19.2108 4.58696 18.0025 3.37866 16.512 3.37866C15.0214 3.37866 13.8131 4.58696 13.8131 6.07754C13.8131 7.56812 15.0214 8.77641 16.512 8.77641ZM5.71645 15.0738C7.20703 15.0738 8.41533 13.8655 8.41533 12.3749C8.41533 10.8843 7.20703 9.67604 5.71645 9.67604C4.22587 9.67604 3.01758 10.8843 3.01758 12.3749C3.01758 13.8655 4.22587 15.0738 5.71645 15.0738ZM16.512 21.3712C18.0025 21.3712 19.2108 20.1629 19.2108 18.6723C19.2108 17.1817 18.0025 15.9734 16.512 15.9734C15.0214 15.9734 13.8131 17.1817 13.8131 18.6723C13.8131 20.1629 15.0214 21.3712 16.512 21.3712Z" fill="white" fill-opacity="0.01"/>
<path d="M8.04648 13.7333L14.1909 17.3139M14.1819 7.43597L8.04648 11.0165M19.2108 6.07754C19.2108 7.56812 18.0025 8.77641 16.512 8.77641C15.0214 8.77641 13.8131 7.56812 13.8131 6.07754C13.8131 4.58696 15.0214 3.37866 16.512 3.37866C18.0025 3.37866 19.2108 4.58696 19.2108 6.07754ZM8.41533 12.3749C8.41533 13.8655 7.20703 15.0738 5.71645 15.0738C4.22587 15.0738 3.01758 13.8655 3.01758 12.3749C3.01758 10.8843 4.22587 9.67604 5.71645 9.67604C7.20703 9.67604 8.41533 10.8843 8.41533 12.3749ZM19.2108 18.6723C19.2108 20.1629 18.0025 21.3712 16.512 21.3712C15.0214 21.3712 13.8131 20.1629 13.8131 18.6723C13.8131 17.1817 15.0214 15.9734 16.512 15.9734C18.0025 15.9734 19.2108 17.1817 19.2108 18.6723Z" stroke="#6C737F" stroke-width="1.99943" stroke-linecap="round" stroke-linejoin="round"/>
</g>
<defs>
<clipPath id="clip0_0_553">
<rect width="23.99" height="23.99" fill="white" transform="translate(0.0195312 0.379883)"/>
</clipPath>
</defs>
</svg>
