<svg width="25" height="25" viewBox="0 0 25 25" fill="none" xmlns="http://www.w3.org/2000/svg">
<g clip-path="url(#clip0_0_550)">
<path fill-rule="evenodd" clip-rule="evenodd" d="M12.619 5.30004C10.8203 3.19732 7.82098 2.63166 5.56732 4.55715C3.31376 6.48265 2.99639 9.70201 4.76625 11.9795C6.23764 13.8729 10.6908 17.8663 12.1503 19.1588C12.3135 19.3034 12.3952 19.3757 12.4904 19.4042C12.5744 19.429 12.6637 19.429 12.7476 19.4042C12.8429 19.3757 12.9245 19.3034 13.0878 19.1588C14.5473 17.8663 19.0003 13.8729 20.4718 11.9795C22.2416 9.70211 21.963 6.46246 19.6706 4.55715C17.3783 2.65195 14.4177 3.19732 12.619 5.30004Z" fill="#F04438" fill-opacity="0.01" stroke="#F04438" stroke-width="1.99943" stroke-linecap="round" stroke-linejoin="round"/>
</g>
<defs>
<clipPath id="clip0_0_550">
<rect width="23.99" height="23.99" fill="white" transform="translate(0.630859 0.379883)"/>
</clipPath>
</defs>
</svg>
