<svg width="25" height="25" viewBox="0 0 25 25" fill="none" xmlns="http://www.w3.org/2000/svg">
<g clip-path="url(#clip0_0_585)">
<path d="M6.97477 20.1462L15.4741 11.6468C15.87 11.251 16.068 11.053 16.2962 10.9789C16.4969 10.9136 16.7132 10.9136 16.9139 10.9789C17.1421 11.053 17.3401 11.251 17.736 11.6468L21.603 15.5138V16.7133C21.603 18.3928 21.603 19.2324 21.2761 19.874C20.9886 20.4382 20.5299 20.897 19.9657 21.1844C19.3241 21.5113 18.4845 21.5113 16.805 21.5113H7.54023C6.93458 21.5113 6.63181 21.5113 6.49167 21.3915C6.43169 21.3403 6.38468 21.2757 6.35448 21.2028C6.32429 21.1299 6.31177 21.051 6.31794 20.9723C6.33243 20.7885 6.54664 20.5744 6.97477 20.1462Z" fill="white" fill-opacity="0.01"/>
<path d="M3.60938 8.3168C3.60938 6.6373 3.60937 5.79765 3.93624 5.15612C4.22373 4.59189 4.68247 4.13316 5.24669 3.84566C5.88823 3.5188 6.72788 3.5188 8.40738 3.5188H16.8039C18.4834 3.5188 19.323 3.5188 19.9646 3.84566C20.5288 4.13314 20.9875 4.59188 21.275 5.15612C21.6019 5.79765 21.6019 6.6373 21.6019 8.3168V16.7133C21.6019 18.3928 21.6019 19.2324 21.275 19.874C20.9875 20.4382 20.5288 20.897 19.9646 21.1844C19.323 21.5113 18.4834 21.5113 16.8039 21.5113H8.40738C6.72788 21.5113 5.88823 21.5113 5.24669 21.1844C4.68245 20.897 4.22372 20.4382 3.93624 19.874C3.60937 19.2324 3.60938 18.3928 3.60938 16.7133V8.3168Z" fill="white" fill-opacity="0.01"/>
<path d="M9.1088 11.0162C10.2131 11.0162 11.1082 10.121 11.1082 9.01676C11.1082 7.91248 10.2131 7.01733 9.1088 7.01733C8.00452 7.01733 7.10938 7.91248 7.10938 9.01676C7.10938 10.121 8.00452 11.0162 9.1088 11.0162Z" fill="white" fill-opacity="0.01"/>
<path d="M16.8039 21.5113H7.53914C6.93349 21.5113 6.63072 21.5113 6.49057 21.3915C6.43059 21.3403 6.38358 21.2757 6.35339 21.2028C6.32319 21.1299 6.31067 21.051 6.31685 20.9723C6.33134 20.7885 6.54545 20.5744 6.97357 20.1462L15.473 11.6468C15.8689 11.251 16.0669 11.053 16.2951 10.9789C16.4958 10.9136 16.7121 10.9136 16.9128 10.9789C17.141 11.053 17.3391 11.251 17.7349 11.6468L21.6019 15.5138V16.7133M16.8039 21.5113C18.4834 21.5113 19.323 21.5113 19.9646 21.1844C20.5288 20.897 20.9875 20.4382 21.275 19.874C21.6019 19.2324 21.6019 18.3928 21.6019 16.7133M16.8039 21.5113H8.40738C6.72788 21.5113 5.88823 21.5113 5.24669 21.1844C4.68245 20.897 4.22372 20.4382 3.93624 19.874C3.60937 19.2324 3.60938 18.3928 3.60938 16.7133V8.3168C3.60938 6.6373 3.60937 5.79765 3.93624 5.15612C4.22373 4.59189 4.68247 4.13316 5.24669 3.84566C5.88823 3.5188 6.72788 3.5188 8.40738 3.5188H16.8039C18.4834 3.5188 19.323 3.5188 19.9646 3.84566C20.5288 4.13314 20.9875 4.59188 21.275 5.15612C21.6019 5.79765 21.6019 6.6373 21.6019 8.3168V16.7133M11.1063 9.01651C11.1063 10.1206 10.2112 11.0157 9.10708 11.0157C8.00294 11.0157 7.10792 10.1206 7.10792 9.01651C7.10792 7.91237 8.00294 7.01734 9.10708 7.01734C10.2112 7.01734 11.1063 7.91237 11.1063 9.01651Z" stroke="#6C737F" stroke-width="1.99943" stroke-linecap="round" stroke-linejoin="round"/>
</g>
<defs>
<clipPath id="clip0_0_585">
<rect width="23.99" height="23.99" fill="white" transform="translate(0.611328 0.52002)"/>
</clipPath>
</defs>
</svg>
