<svg width="41" height="40" viewBox="0 0 41 40" fill="none" xmlns="http://www.w3.org/2000/svg">
<g clip-path="url(#clip0_0_710)">
<path d="M17.7806 20.147C20.0309 20.147 21.855 18.3229 21.855 16.0727C21.855 13.8224 20.0309 11.9983 17.7807 11.9983C15.5304 11.9983 13.7062 13.8225 13.7062 16.0726C13.7062 18.3229 15.5305 20.147 17.7806 20.147ZM17.7806 22.8633C15.2177 22.8633 12.9398 24.2617 11.4963 26.4291C11.1802 26.9039 11.022 27.1413 11.0402 27.4446C11.0544 27.6807 11.2092 27.9697 11.3979 28.1125C11.6402 28.2957 11.9734 28.2957 12.6401 28.2957H22.9213C23.5878 28.2957 23.9211 28.2957 24.1634 28.1125C24.3521 27.9697 24.5068 27.6807 24.521 27.4446C24.5392 27.1413 24.3812 26.9039 24.0649 26.4291C22.6214 24.2617 20.3436 22.8633 17.7806 22.8633Z" fill="white" fill-opacity="0.01"/>
<path d="M25.4766 23.6209C26.7949 24.2832 27.925 25.3458 28.7499 26.6747C28.9133 26.9379 28.9949 27.0694 29.0232 27.2516C29.0806 27.6219 28.8274 28.0771 28.4826 28.2236C28.3128 28.2957 28.1219 28.2957 27.7402 28.2957M23.6658 19.7235C25.0074 19.0567 25.9293 17.6723 25.9293 16.0726C25.9293 14.4729 25.0074 13.0885 23.6658 12.4218M21.855 16.0726C21.855 18.3228 20.0309 20.1469 17.7807 20.1469C15.5305 20.1469 13.7063 18.3228 13.7063 16.0726C13.7063 13.8224 15.5305 11.9983 17.7806 11.9983C20.0309 11.9983 21.855 13.8225 21.855 16.0726ZM11.4963 26.429C12.9398 24.2616 15.2178 22.8632 17.7807 22.8632C20.3436 22.8632 22.6214 24.2616 24.0649 26.429C24.3812 26.9038 24.5392 27.1412 24.521 27.4445C24.5068 27.6806 24.3521 27.9696 24.1634 28.1124C23.9211 28.2956 23.5878 28.2956 22.9213 28.2956H12.6401C11.9734 28.2956 11.6402 28.2956 11.3979 28.1124C11.2093 27.9696 11.0544 27.6806 11.0402 27.4445C11.022 27.1412 11.1801 26.9038 11.4963 26.429Z" stroke="#6C737F" stroke-width="1.99943" stroke-linecap="round" stroke-linejoin="round"/>
</g>
<defs>
<clipPath id="clip0_0_710">
<rect width="23.99" height="23.99" fill="white" transform="translate(8.04004 8)"/>
</clipPath>
</defs>
</svg>
