<svg width="24" height="25" viewBox="0 0 24 25" fill="none" xmlns="http://www.w3.org/2000/svg">
<g clip-path="url(#clip0_0_620)">
<path d="M16.512 9.05644C18.0025 9.05644 19.2108 7.84814 19.2108 6.35757C19.2108 4.86699 18.0025 3.65869 16.512 3.65869C15.0214 3.65869 13.8131 4.86699 13.8131 6.35757C13.8131 7.84814 15.0214 9.05644 16.512 9.05644ZM5.71645 15.3538C7.20703 15.3538 8.41533 14.1455 8.41533 12.6549C8.41533 11.1644 7.20703 9.95607 5.71645 9.95607C4.22587 9.95607 3.01758 11.1644 3.01758 12.6549C3.01758 14.1455 4.22587 15.3538 5.71645 15.3538ZM16.512 21.6512C18.0025 21.6512 19.2108 20.4429 19.2108 18.9523C19.2108 17.4617 18.0025 16.2534 16.512 16.2534C15.0214 16.2534 13.8131 17.4617 13.8131 18.9523C13.8131 20.4429 15.0214 21.6512 16.512 21.6512Z" fill="white" fill-opacity="0.01"/>
<path d="M8.04648 14.0134L14.1909 17.5939M14.1819 7.716L8.04648 11.2965M19.2108 6.35757C19.2108 7.84814 18.0025 9.05644 16.512 9.05644C15.0214 9.05644 13.8131 7.84814 13.8131 6.35757C13.8131 4.86699 15.0214 3.65869 16.512 3.65869C18.0025 3.65869 19.2108 4.86699 19.2108 6.35757ZM8.41533 12.6549C8.41533 14.1455 7.20703 15.3538 5.71645 15.3538C4.22587 15.3538 3.01758 14.1455 3.01758 12.6549C3.01758 11.1644 4.22587 9.95607 5.71645 9.95607C7.20703 9.95607 8.41533 11.1644 8.41533 12.6549ZM19.2108 18.9523C19.2108 20.4429 18.0025 21.6512 16.512 21.6512C15.0214 21.6512 13.8131 20.4429 13.8131 18.9523C13.8131 17.4617 15.0214 16.2534 16.512 16.2534C18.0025 16.2534 19.2108 17.4617 19.2108 18.9523Z" stroke="#6C737F" stroke-width="1.99943" stroke-linecap="round" stroke-linejoin="round"/>
</g>
<defs>
<clipPath id="clip0_0_620">
<rect width="23.99" height="23.99" fill="white" transform="translate(0.0195312 0.659912)"/>
</clipPath>
</defs>
</svg>
