<svg width="25" height="25" viewBox="0 0 25 25" fill="none" xmlns="http://www.w3.org/2000/svg">
<g clip-path="url(#clip0_0_652)">
<path d="M6.97477 20.4362L15.4741 11.9368C15.87 11.541 16.068 11.343 16.2962 11.2689C16.4969 11.2037 16.7132 11.2037 16.9139 11.2689C17.1421 11.343 17.3401 11.541 17.736 11.9368L21.603 15.8038V17.0033C21.603 18.6828 21.603 19.5225 21.2761 20.164C20.9886 20.7283 20.5299 21.187 19.9657 21.4745C19.3241 21.8013 18.4845 21.8013 16.805 21.8013H7.54023C6.93458 21.8013 6.63181 21.8013 6.49167 21.6816C6.43169 21.6304 6.38468 21.5657 6.35448 21.4928C6.32429 21.42 6.31177 21.341 6.31794 21.2624C6.33243 21.0785 6.54664 20.8644 6.97477 20.4362Z" fill="white" fill-opacity="0.01"/>
<path d="M3.60938 8.60684C3.60938 6.92734 3.60937 6.08769 3.93624 5.44616C4.22373 4.88193 4.68247 4.4232 5.24669 4.1357C5.88823 3.80884 6.72788 3.80884 8.40738 3.80884H16.8039C18.4834 3.80884 19.323 3.80884 19.9646 4.1357C20.5288 4.42318 20.9875 4.88192 21.275 5.44616C21.6019 6.08769 21.6019 6.92734 21.6019 8.60684V17.0033C21.6019 18.6828 21.6019 19.5225 21.275 20.164C20.9875 20.7283 20.5288 21.187 19.9646 21.4745C19.323 21.8013 18.4834 21.8013 16.8039 21.8013H8.40738C6.72788 21.8013 5.88823 21.8013 5.24669 21.4745C4.68245 21.187 4.22372 20.7283 3.93624 20.164C3.60937 19.5225 3.60938 18.6828 3.60938 17.0033V8.60684Z" fill="white" fill-opacity="0.01"/>
<path d="M9.1088 11.3062C10.2131 11.3062 11.1082 10.4111 11.1082 9.3068C11.1082 8.20252 10.2131 7.30737 9.1088 7.30737C8.00452 7.30737 7.10938 8.20252 7.10938 9.3068C7.10938 10.4111 8.00452 11.3062 9.1088 11.3062Z" fill="white" fill-opacity="0.01"/>
<path d="M16.8039 21.8013H7.53914C6.93349 21.8013 6.63072 21.8013 6.49057 21.6816C6.43059 21.6304 6.38358 21.5657 6.35339 21.4928C6.32319 21.42 6.31067 21.341 6.31685 21.2624C6.33134 21.0785 6.54545 20.8644 6.97357 20.4362L15.473 11.9369C15.8689 11.541 16.0669 11.343 16.2951 11.2689C16.4958 11.2037 16.7121 11.2037 16.9128 11.2689C17.141 11.343 17.3391 11.541 17.7349 11.9369L21.6019 15.8038V17.0033M16.8039 21.8013C18.4834 21.8013 19.323 21.8013 19.9646 21.4745C20.5288 21.187 20.9875 20.7283 21.275 20.164C21.6019 19.5225 21.6019 18.6828 21.6019 17.0033M16.8039 21.8013H8.40738C6.72788 21.8013 5.88823 21.8013 5.24669 21.4745C4.68245 21.187 4.22372 20.7283 3.93624 20.164C3.60937 19.5225 3.60938 18.6828 3.60938 17.0033V8.60684C3.60938 6.92734 3.60937 6.08769 3.93624 5.44616C4.22373 4.88193 4.68247 4.4232 5.24669 4.1357C5.88823 3.80884 6.72788 3.80884 8.40738 3.80884H16.8039C18.4834 3.80884 19.323 3.80884 19.9646 4.1357C20.5288 4.42318 20.9875 4.88192 21.275 5.44616C21.6019 6.08769 21.6019 6.92734 21.6019 8.60684V17.0033M11.1063 9.30655C11.1063 10.4107 10.2112 11.3057 9.10708 11.3057C8.00294 11.3057 7.10792 10.4107 7.10792 9.30655C7.10792 8.20241 8.00294 7.30738 9.10708 7.30738C10.2112 7.30738 11.1063 8.20241 11.1063 9.30655Z" stroke="#6C737F" stroke-width="1.99943" stroke-linecap="round" stroke-linejoin="round"/>
</g>
<defs>
<clipPath id="clip0_0_652">
<rect width="23.99" height="23.99" fill="white" transform="translate(0.611328 0.810059)"/>
</clipPath>
</defs>
</svg>
