<svg width="40" height="40" viewBox="0 0 40 40" fill="none" xmlns="http://www.w3.org/2000/svg">
<g clip-path="url(#clip0_0_679)">
<path d="M18.9754 26.9921C23.3919 26.9921 26.9721 23.4119 26.9721 18.9954C26.9721 14.579 23.3919 10.9988 18.9754 10.9988C14.559 10.9988 10.9788 14.579 10.9788 18.9954C10.9788 23.4119 14.559 26.9921 18.9754 26.9921Z" fill="white" fill-opacity="0.01"/>
<path d="M28.9713 28.9913L24.6231 24.6431M26.9721 18.9954C26.9721 23.4119 23.3919 26.9921 18.9754 26.9921C14.559 26.9921 10.9788 23.4119 10.9788 18.9954C10.9788 14.579 14.559 10.9988 18.9754 10.9988C23.3919 10.9988 26.9721 14.579 26.9721 18.9954Z" stroke="#6C737F" stroke-width="1.99943" stroke-linecap="round" stroke-linejoin="round"/>
</g>
<defs>
<clipPath id="clip0_0_679">
<rect width="23.99" height="23.99" fill="white" transform="translate(7.98001 8)"/>
</clipPath>
</defs>
</svg>
