<svg width="25" height="25" viewBox="0 0 25 25" fill="none" xmlns="http://www.w3.org/2000/svg">
<g clip-path="url(#clip0_0_454)">
<path d="M12.024 13.9645C12.5761 13.9645 13.0236 13.517 13.0236 12.9649C13.0236 12.4128 12.5761 11.9653 12.024 11.9653C11.4719 11.9653 11.0244 12.4128 11.0244 12.9649C11.0244 13.517 11.4719 13.9645 12.024 13.9645ZM19.0211 13.9645C19.5732 13.9645 20.0207 13.517 20.0207 12.9649C20.0207 12.4128 19.5732 11.9653 19.0211 11.9653C18.469 11.9653 18.0215 12.4128 18.0215 12.9649C18.0215 13.517 18.469 13.9645 19.0211 13.9645ZM5.02693 13.9645C5.579 13.9645 6.02651 13.517 6.02651 12.9649C6.02651 12.4128 5.579 11.9653 5.02693 11.9653C4.47486 11.9653 4.02734 12.4128 4.02734 12.9649C4.02734 13.517 4.47486 13.9645 5.02693 13.9645Z" fill="white" fill-opacity="0.01"/>
<path d="M12.024 13.9645C12.5761 13.9645 13.0236 13.517 13.0236 12.9649C13.0236 12.4128 12.5761 11.9653 12.024 11.9653C11.4719 11.9653 11.0244 12.4128 11.0244 12.9649C11.0244 13.517 11.4719 13.9645 12.024 13.9645ZM19.0211 13.9645C19.5732 13.9645 20.0207 13.517 20.0207 12.9649C20.0207 12.4128 19.5732 11.9653 19.0211 11.9653C18.469 11.9653 18.0215 12.4128 18.0215 12.9649C18.0215 13.517 18.469 13.9645 19.0211 13.9645ZM5.02693 13.9645C5.579 13.9645 6.02651 13.517 6.02651 12.9649C6.02651 12.4128 5.579 11.9653 5.02693 11.9653C4.47486 11.9653 4.02734 12.4128 4.02734 12.9649C4.02734 13.517 4.47486 13.9645 5.02693 13.9645Z" stroke="#6C737F" stroke-width="1.99943" stroke-linecap="round" stroke-linejoin="round"/>
</g>
<defs>
<clipPath id="clip0_0_454">
<rect width="23.99" height="23.99" fill="white" transform="translate(0.0292969 0.969971)"/>
</clipPath>
</defs>
</svg>
