<svg width="25" height="25" viewBox="0 0 25 25" fill="none" xmlns="http://www.w3.org/2000/svg">
<g clip-path="url(#clip0_0_617)">
<path fill-rule="evenodd" clip-rule="evenodd" d="M12.619 5.58007C10.8203 3.47735 7.82098 2.91169 5.56732 4.83718C3.31376 6.76268 2.99639 9.98204 4.76625 12.2595C6.23764 14.1529 10.6908 18.1463 12.1503 19.4388C12.3135 19.5834 12.3952 19.6557 12.4904 19.6842C12.5744 19.709 12.6637 19.709 12.7476 19.6842C12.8429 19.6557 12.9245 19.5834 13.0878 19.4388C14.5473 18.1463 19.0003 14.1529 20.4718 12.2595C22.2416 9.98214 21.963 6.74249 19.6706 4.83718C17.3783 2.93198 14.4177 3.47735 12.619 5.58007Z" fill="white" fill-opacity="0.01" stroke="#6C737F" stroke-width="1.99943" stroke-linecap="round" stroke-linejoin="round"/>
</g>
<defs>
<clipPath id="clip0_0_617">
<rect width="23.99" height="23.99" fill="white" transform="translate(0.630859 0.659912)"/>
</clipPath>
</defs>
</svg>
