<svg width="25" height="25" viewBox="0 0 25 25" fill="none" xmlns="http://www.w3.org/2000/svg">
<g clip-path="url(#clip0_0_597)">
<path d="M12.465 20.5117C17.4335 20.5117 21.4613 16.4839 21.4613 11.5154C21.4613 6.54689 17.4335 2.51917 12.465 2.51917C7.49647 2.51917 3.46875 6.54689 3.46875 11.5154C3.46875 16.4839 7.49647 20.5117 12.465 20.5117Z" fill="white" fill-opacity="0.01"/>
<path d="M8.86719 13.3153C8.86719 13.3153 10.2168 15.1148 12.4662 15.1148C14.7155 15.1148 16.0651 13.3153 16.0651 13.3153M15.6152 8.81663C15.6152 8.93594 15.5679 9.05037 15.4835 9.13474C15.3991 9.21911 15.2847 9.2665 15.1654 9.2665C15.0461 9.2665 14.9316 9.21911 14.8473 9.13474C14.7629 9.05037 14.7155 8.93594 14.7155 8.81663C14.7155 8.69732 14.7629 8.58289 14.8473 8.49852C14.9316 8.41416 15.0461 8.36676 15.1654 8.36676C15.2847 8.36676 15.3991 8.41416 15.4835 8.49852C15.5679 8.58289 15.6152 8.69732 15.6152 8.81663ZM10.2168 8.81663C10.2168 8.93594 10.1694 9.05037 10.085 9.13474C10.0007 9.21911 9.88624 9.2665 9.76693 9.2665C9.64762 9.2665 9.53319 9.21911 9.44882 9.13474C9.36446 9.05037 9.31706 8.93594 9.31706 8.81663C9.31706 8.69732 9.36446 8.58289 9.44882 8.49852C9.53319 8.41416 9.64762 8.36676 9.76693 8.36676C9.88624 8.36676 10.0007 8.41416 10.085 8.49852C10.1694 8.58289 10.2168 8.69732 10.2168 8.81663Z" fill="white" fill-opacity="0.01"/>
<path d="M8.8665 13.3147C8.8665 13.3147 10.2159 15.1139 12.465 15.1139C14.7141 15.1139 16.0635 13.3147 16.0635 13.3147M15.1639 8.81654H15.1729M9.76613 8.81654H9.77512M21.4613 11.5154C21.4613 16.4839 17.4335 20.5117 12.465 20.5117C7.49647 20.5117 3.46875 16.4839 3.46875 11.5154C3.46875 6.54689 7.49647 2.51917 12.465 2.51917C17.4335 2.51917 21.4613 6.54689 21.4613 11.5154ZM15.6137 8.81654C15.6137 8.93584 15.5663 9.05025 15.4819 9.13461C15.3976 9.21896 15.2832 9.26635 15.1639 9.26635C15.0446 9.26635 14.9302 9.21896 14.8458 9.13461C14.7615 9.05025 14.7141 8.93584 14.7141 8.81654C14.7141 8.69724 14.7615 8.58283 14.8458 8.49847C14.9302 8.41412 15.0446 8.36673 15.1639 8.36673C15.2832 8.36673 15.3976 8.41412 15.4819 8.49847C15.5663 8.58283 15.6137 8.69724 15.6137 8.81654ZM10.2159 8.81654C10.2159 8.93584 10.1685 9.05025 10.0842 9.13461C9.99983 9.21896 9.88542 9.26635 9.76613 9.26635C9.64683 9.26635 9.53242 9.21896 9.44806 9.13461C9.3637 9.05025 9.31631 8.93584 9.31631 8.81654C9.31631 8.69724 9.3637 8.58283 9.44806 8.49847C9.53242 8.41412 9.64683 8.36673 9.76613 8.36673C9.88542 8.36673 9.99983 8.41412 10.0842 8.49847C10.1685 8.58283 10.2159 8.69724 10.2159 8.81654Z" stroke="#6C737F" stroke-width="1.99943" stroke-linecap="round" stroke-linejoin="round"/>
</g>
<defs>
<clipPath id="clip0_0_597">
<rect width="23.99" height="23.99" fill="white" transform="translate(0.470703 0.52002)"/>
</clipPath>
</defs>
</svg>
