<svg width="25" height="25" viewBox="0 0 25 25" fill="none" xmlns="http://www.w3.org/2000/svg">
<g clip-path="url(#clip0_0_517)">
<path d="M6.97477 19.8862L15.4741 11.3869C15.87 10.991 16.068 10.793 16.2962 10.7189C16.4969 10.6537 16.7132 10.6537 16.9139 10.7189C17.1421 10.793 17.3401 10.991 17.736 11.3869L21.603 15.2538V16.4533C21.603 18.1328 21.603 18.9725 21.2761 19.614C20.9886 20.1783 20.5299 20.637 19.9657 20.9245C19.3241 21.2513 18.4845 21.2513 16.805 21.2513H7.54023C6.93458 21.2513 6.63181 21.2513 6.49167 21.1316C6.43169 21.0804 6.38468 21.0157 6.35448 20.9428C6.32429 20.87 6.31177 20.791 6.31794 20.7124C6.33243 20.5285 6.54664 20.3144 6.97477 19.8862Z" fill="white" fill-opacity="0.01"/>
<path d="M3.60938 8.05685C3.60938 6.37735 3.60937 5.5377 3.93624 4.89617C4.22373 4.33194 4.68247 3.87321 5.24669 3.58571C5.88823 3.25885 6.72788 3.25885 8.40738 3.25885H16.8039C18.4834 3.25885 19.323 3.25885 19.9646 3.58571C20.5288 3.87319 20.9875 4.33193 21.275 4.89617C21.6019 5.5377 21.6019 6.37735 21.6019 8.05685V16.4534C21.6019 18.1329 21.6019 18.9725 21.275 19.614C20.9875 20.1783 20.5288 20.637 19.9646 20.9245C19.323 21.2514 18.4834 21.2514 16.8039 21.2514H8.40738C6.72788 21.2514 5.88823 21.2514 5.24669 20.9245C4.68245 20.637 4.22372 20.1783 3.93624 19.614C3.60937 18.9725 3.60938 18.1329 3.60938 16.4534V8.05685Z" fill="white" fill-opacity="0.01"/>
<path d="M9.1088 10.7562C10.2131 10.7562 11.1082 9.86109 11.1082 8.75681C11.1082 7.65253 10.2131 6.75739 9.1088 6.75739C8.00452 6.75739 7.10938 7.65253 7.10938 8.75681C7.10938 9.86109 8.00452 10.7562 9.1088 10.7562Z" fill="white" fill-opacity="0.01"/>
<path d="M16.8039 21.2514H7.53914C6.93349 21.2514 6.63072 21.2514 6.49057 21.1316C6.43059 21.0804 6.38358 21.0157 6.35339 20.9428C6.32319 20.87 6.31067 20.791 6.31685 20.7124C6.33134 20.5286 6.54545 20.3144 6.97357 19.8862L15.473 11.3869C15.8689 10.991 16.0669 10.793 16.2951 10.7189C16.4958 10.6537 16.7121 10.6537 16.9128 10.7189C17.141 10.793 17.3391 10.991 17.7349 11.3869L21.6019 15.2539V16.4534M16.8039 21.2514C18.4834 21.2514 19.323 21.2514 19.9646 20.9245C20.5288 20.637 20.9875 20.1783 21.275 19.614C21.6019 18.9725 21.6019 18.1329 21.6019 16.4534M16.8039 21.2514H8.40738C6.72788 21.2514 5.88823 21.2514 5.24669 20.9245C4.68245 20.637 4.22372 20.1783 3.93624 19.614C3.60937 18.9725 3.60938 18.1329 3.60938 16.4534V8.05685C3.60938 6.37735 3.60937 5.5377 3.93624 4.89617C4.22373 4.33194 4.68247 3.87321 5.24669 3.58571C5.88823 3.25885 6.72788 3.25885 8.40738 3.25885H16.8039C18.4834 3.25885 19.323 3.25885 19.9646 3.58571C20.5288 3.87319 20.9875 4.33193 21.275 4.89617C21.6019 5.5377 21.6019 6.37735 21.6019 8.05685V16.4534M11.1063 8.75656C11.1063 9.8607 10.2112 10.7557 9.10708 10.7557C8.00294 10.7557 7.10792 9.8607 7.10792 8.75656C7.10792 7.65242 8.00294 6.75739 9.10708 6.75739C10.2112 6.75739 11.1063 7.65242 11.1063 8.75656Z" stroke="#6C737F" stroke-width="1.99943" stroke-linecap="round" stroke-linejoin="round"/>
</g>
<defs>
<clipPath id="clip0_0_517">
<rect width="23.99" height="23.99" fill="white" transform="translate(0.611328 0.260071)"/>
</clipPath>
</defs>
</svg>
