<svg width="56" height="32" viewBox="0 0 56 32" fill="none" xmlns="http://www.w3.org/2000/svg">
<g clip-path="url(#clip0_0_486)">
<path d="M2.98804 6.7375C2.98804 5.72992 2.98804 5.22603 3.18416 4.84109C3.35666 4.50256 3.6319 4.22732 3.97044 4.05482C4.35527 3.8587 4.85926 3.8587 5.86684 3.8587H6.22669C8.24205 3.8587 9.24973 3.8587 10.0195 4.25094C10.6966 4.59594 11.2471 5.14641 11.5921 5.82348C11.9843 6.59326 11.9843 7.60094 11.9843 9.6163V20.052L11.8943 19.9169C11.2694 18.9796 10.9569 18.5109 10.5441 18.1715C10.1786 17.8712 9.75747 17.6458 9.30481 17.5083C8.79362 17.3531 8.23026 17.3531 7.10373 17.3531H5.86684C4.85926 17.3531 4.35537 17.3531 3.97044 17.157C3.6319 16.9845 3.35666 16.7092 3.18416 16.3707C2.98804 15.9857 2.98804 15.482 2.98804 14.4743V6.7375ZM20.9805 6.7375C20.9805 5.72992 20.9805 5.22603 20.7844 4.84109C20.6119 4.50256 20.3367 4.22732 19.9982 4.05482C19.6132 3.8587 19.1094 3.8587 18.1017 3.8587H17.7419C15.7265 3.8587 14.7189 3.8587 13.9491 4.25094C13.272 4.59594 12.7215 5.14641 12.3765 5.82348C11.9843 6.59326 11.9843 7.60094 11.9843 9.6163V20.052L12.0743 19.9169C12.6992 18.9796 13.0117 18.5109 13.4245 18.1715C13.79 17.8712 14.2111 17.6458 14.6638 17.5083C15.1751 17.3531 15.7383 17.3531 16.865 17.3531H18.1017C19.1094 17.3531 19.6132 17.3531 19.9982 17.157C20.3367 16.9845 20.6119 16.7092 20.7844 16.3707C20.9805 15.9857 20.9805 15.482 20.9805 14.4743V6.7375Z" fill="white" fill-opacity="0.01"/>
<path d="M11.9843 20.052L11.8943 19.9169C11.2694 18.9796 10.9569 18.5109 10.5441 18.1715C10.1786 17.8712 9.75747 17.6458 9.30481 17.5083C8.79362 17.3531 8.23026 17.3531 7.10373 17.3531H5.86684C4.85926 17.3531 4.35537 17.3531 3.97044 17.157C3.6319 16.9845 3.35666 16.7092 3.18416 16.3707C2.98804 15.9857 2.98804 15.482 2.98804 14.4743V6.7375C2.98804 5.72992 2.98804 5.22603 3.18416 4.84109C3.35666 4.50256 3.6319 4.22732 3.97044 4.05482C4.35527 3.8587 4.85926 3.8587 5.86684 3.8587H6.22669C8.24205 3.8587 9.24973 3.8587 10.0195 4.25094C10.6966 4.59594 11.2471 5.14641 11.5921 5.82348C11.9843 6.59326 11.9843 7.60094 11.9843 9.6163M11.9843 20.052V9.6163M11.9843 20.052L12.0743 19.9169C12.6992 18.9796 13.0117 18.5109 13.4245 18.1715C13.79 17.8712 14.2111 17.6458 14.6638 17.5083C15.1751 17.3531 15.7383 17.3531 16.865 17.3531H18.1017C19.1094 17.3531 19.6132 17.3531 19.9982 17.157C20.3367 16.9845 20.6119 16.7092 20.7844 16.3707C20.9805 15.9857 20.9805 15.482 20.9805 14.4743V6.7375C20.9805 5.72992 20.9805 5.22603 20.7844 4.84109C20.6119 4.50256 20.3367 4.22732 19.9982 4.05482C19.6132 3.8587 19.1094 3.8587 18.1017 3.8587H17.7419C15.7265 3.8587 14.7189 3.8587 13.9491 4.25094C13.272 4.59594 12.7215 5.14641 12.3765 5.82348C11.9843 6.59326 11.9843 7.60094 11.9843 9.6163" stroke="#6C737F" stroke-width="1.99943" stroke-linecap="round" stroke-linejoin="round"/>
</g>
<defs>
<clipPath id="clip0_0_486">
<rect width="23.99" height="23.99" fill="white" transform="translate(-0.0100021 0.859924)"/>
</clipPath>
</defs>
</svg>
