<svg width="56" height="31" viewBox="0 0 56 31" fill="none" xmlns="http://www.w3.org/2000/svg">
<g clip-path="url(#clip0_0_494)">
<path d="M2.98804 10.6207C2.98804 10.0465 2.98804 9.75943 3.06201 9.49514C3.12756 9.26096 3.23528 9.04071 3.37988 8.84521C3.54311 8.6245 3.76972 8.44827 4.22293 8.09572L11.0024 2.82282C11.3536 2.54973 11.5292 2.41309 11.7231 2.36061C11.8942 2.31429 12.0744 2.31429 12.2455 2.36061C12.4394 2.41309 12.615 2.54963 12.9662 2.82282L19.7457 8.09572C20.1989 8.44827 20.4255 8.6245 20.5887 8.84521C20.7332 9.04063 20.841 9.26093 20.9066 9.49514C20.9805 9.75943 20.9805 10.0465 20.9805 10.6207V17.8526C20.9805 18.9722 20.9805 19.532 20.7626 19.9597C20.571 20.3358 20.2652 20.6417 19.889 20.8333C19.4614 21.0512 18.9015 21.0512 17.7819 21.0512H6.18671C5.06708 21.0512 4.50721 21.0512 4.07959 20.8333C3.70343 20.6417 3.3976 20.3358 3.20595 19.9597C2.98804 19.532 2.98804 18.9722 2.98804 17.8526V10.6207Z" fill="white" fill-opacity="0.01"/>
<path d="M8.98625 21.0512V13.6543C8.98625 13.0945 8.98625 12.8146 9.09521 12.6008C9.19104 12.4127 9.34395 12.2598 9.53202 12.1639C9.74593 12.055 10.0258 12.055 10.5856 12.055H13.3844C13.9443 12.055 14.2242 12.055 14.438 12.1639C14.6261 12.2598 14.779 12.4127 14.8748 12.6008C14.9838 12.8146 14.9838 13.0945 14.9838 13.6543V21.0512" fill="white" fill-opacity="0.01"/>
<path d="M8.98554 21.0512V13.6543C8.98554 13.0944 8.98555 12.8146 9.0945 12.6007C9.19033 12.4127 9.34324 12.2598 9.53132 12.1639C9.74523 12.055 10.0251 12.055 10.5849 12.055H13.3837C13.9436 12.055 14.2235 12.055 14.4373 12.1639C14.6254 12.2597 14.7783 12.4127 14.8741 12.6007C14.983 12.8146 14.983 13.0944 14.983 13.6543V21.0512M11.0024 2.82282L4.22293 8.09572C3.76972 8.44827 3.54321 8.6245 3.37988 8.84521C3.23528 9.04071 3.12756 9.26096 3.06201 9.49514C2.98804 9.75943 2.98804 10.0465 2.98804 10.6206V17.8526C2.98804 18.9722 2.98804 19.532 3.20595 19.9597C3.39757 20.3358 3.70345 20.6417 4.07959 20.8333C4.50721 21.0512 5.06718 21.0512 6.18671 21.0512H17.7819C18.9015 21.0512 19.4614 21.0512 19.889 20.8333C20.2652 20.6417 20.571 20.3358 20.7626 19.9597C20.9805 19.532 20.9805 18.9722 20.9805 17.8526V10.6207C20.9805 10.0465 20.9805 9.75943 20.9066 9.49514C20.841 9.26098 20.7333 9.04073 20.5887 8.84521C20.4255 8.6245 20.1989 8.44827 19.7457 8.09572L12.9662 2.82282C12.615 2.54973 12.4394 2.41309 12.2455 2.36061C12.0744 2.31429 11.8942 2.31429 11.7231 2.36061C11.5292 2.41309 11.3536 2.54963 11.0024 2.82282Z" stroke="#6C737F" stroke-width="1.99943" stroke-linecap="round" stroke-linejoin="round"/>
</g>
<defs>
<clipPath id="clip0_0_494">
<rect width="23.99" height="23.99" fill="white" transform="translate(-0.0100021 0.0599976)"/>
</clipPath>
</defs>
</svg>
