<svg width="56" height="31" viewBox="0 0 56 31" fill="none" xmlns="http://www.w3.org/2000/svg">
<g clip-path="url(#clip0_0_474)">
<path d="M2.98804 10.146C2.98804 9.13843 2.98804 8.63454 3.18416 8.2496C3.35666 7.91107 3.6319 7.63583 3.97044 7.46333C4.35527 7.26721 4.85926 7.26721 5.86684 7.26721H18.1017C19.1094 7.26721 19.6132 7.26721 19.9982 7.46333C20.3367 7.63583 20.6119 7.91107 20.7844 8.2496C20.9805 8.63444 20.9805 9.13843 20.9805 10.146V16.9832C20.9805 17.9908 20.9805 18.4946 20.7844 18.8796C20.6119 19.2181 20.3367 19.4933 19.9982 19.6658C19.6132 19.862 19.1094 19.862 18.1017 19.862H5.86684C4.85926 19.862 4.35537 19.862 3.97044 19.6658C3.6319 19.4933 3.35666 19.2181 3.18416 18.8796C2.98804 18.4946 2.98804 17.9908 2.98804 16.9832V10.146Z" fill="white" fill-opacity="0.01"/>
<path d="M15.5828 7.26726C15.5828 6.43061 15.5828 6.01229 15.4908 5.66913C15.3682 5.21152 15.1273 4.79424 14.7923 4.45925C14.4573 4.12425 14.04 3.88334 13.5824 3.76072C13.2393 3.66876 12.8209 3.66876 11.9843 3.66876C11.1476 3.66876 10.7293 3.66876 10.3862 3.76072C9.92855 3.88334 9.51127 4.12425 9.17628 4.45925C8.84128 4.79424 8.60037 5.21152 8.47776 5.66913C8.38579 6.01229 8.38579 6.43061 8.38579 7.26726M5.86684 19.862H18.1017C19.1094 19.862 19.6132 19.862 19.9982 19.6659C20.3367 19.4934 20.6119 19.2182 20.7844 18.8796C20.9805 18.4947 20.9805 17.9909 20.9805 16.9832V10.1461C20.9805 9.13848 20.9805 8.63459 20.7844 8.24965C20.6119 7.91112 20.3367 7.63588 19.9982 7.46338C19.6132 7.26726 19.1094 7.26726 18.1017 7.26726H5.86684C4.85926 7.26726 4.35537 7.26726 3.97044 7.46338C3.6319 7.63588 3.35666 7.91112 3.18416 8.24965C2.98804 8.63449 2.98804 9.13848 2.98804 10.1461V16.9832C2.98804 17.9909 2.98804 18.4947 3.18416 18.8796C3.35666 19.2182 3.6319 19.4934 3.97044 19.6659C4.35527 19.862 4.85916 19.862 5.86684 19.862Z" stroke="#6C737F" stroke-width="1.99943" stroke-linecap="round" stroke-linejoin="round"/>
</g>
<defs>
<clipPath id="clip0_0_474">
<rect width="23.99" height="23.99" fill="white" transform="translate(-0.0100021 0.669983)"/>
</clipPath>
</defs>
</svg>
