<svg width="40" height="41" viewBox="0 0 40 41" fill="none" xmlns="http://www.w3.org/2000/svg">
<rect x="0.48999" y="0.910034" width="39" height="39" rx="7.5" stroke="#2F3746"/>
<g clip-path="url(#clip0_0_720)">
<path opacity="0.16" d="M14.0901 19.2668C14.6474 17.189 16.7836 15.054 18.8602 14.4967L31.8114 11.0261C33.888 10.4701 35.1206 11.7026 34.5645 13.7792L31.0927 26.7304C30.5354 28.8083 28.3992 30.9432 26.3226 31.5006L13.3726 34.9711C11.296 35.5272 10.0635 34.2946 10.6195 32.218L14.0901 19.2668Z" fill="#6366F1"/>
<path d="M8.8999 14.0747C9.45598 11.9968 11.5909 9.86187 13.6688 9.30455L26.62 5.83401C28.6966 5.27793 29.9304 6.51049 29.3731 8.5871L25.9025 21.5383C25.3452 23.6162 23.2103 25.7511 21.1324 26.3084L8.18122 29.779C6.10461 30.335 4.87205 29.1025 5.42813 27.0259L8.8999 14.0747Z" fill="#6366F1"/>
</g>
<defs>
<clipPath id="clip0_0_720">
<rect width="29.79" height="29.79" fill="white" transform="translate(5.10132 5.51001)"/>
</clipPath>
</defs>
</svg>
