<svg width="24" height="25" viewBox="0 0 24 25" fill="none" xmlns="http://www.w3.org/2000/svg">
<g clip-path="url(#clip0_0_505)">
<path d="M2.98804 8.53646C2.98804 7.02499 2.98804 6.26921 3.28222 5.69185C3.54098 5.18399 3.95387 4.77109 4.46173 4.51234C5.03889 4.21826 5.79468 4.21826 7.30625 4.21826H16.6623C18.1738 4.21826 18.9296 4.21826 19.507 4.51244C20.0147 4.77113 20.4277 5.18406 20.6864 5.69195C20.9805 6.26911 20.9805 7.02489 20.9805 8.53646V14.2941C20.9805 15.8055 20.9805 16.5613 20.6864 17.1387C20.4276 17.6465 20.0148 18.0594 19.507 18.3181C18.9296 18.6123 18.1738 18.6123 16.6623 18.6123H7.30625C5.79478 18.6123 5.03899 18.6123 4.46163 18.3181C3.95378 18.0594 3.54088 17.6465 3.28212 17.1387C2.98804 16.5613 2.98804 15.8055 2.98804 14.2941V8.53646Z" fill="white" fill-opacity="0.01"/>
<path d="M2.98804 6.91714L10.3334 12.0589C10.9282 12.4752 11.2256 12.6834 11.5491 12.7641C11.8349 12.8353 12.1337 12.8353 12.4195 12.7641C12.743 12.6834 13.0404 12.4752 13.6352 12.0589L20.9805 6.91714M7.30625 18.6123H16.6623C18.1738 18.6123 18.9296 18.6123 19.507 18.3181C20.0148 18.0594 20.4276 17.6465 20.6864 17.1387C20.9805 16.5613 20.9805 15.8055 20.9805 14.2941V8.53646C20.9805 7.02499 20.9805 6.26921 20.6864 5.69185C20.4276 5.184 20.0148 4.7711 19.507 4.51234C18.9296 4.21826 18.1738 4.21826 16.6623 4.21826H7.30625C5.79478 4.21826 5.03899 4.21826 4.46163 4.51244C3.95377 4.77119 3.54088 5.18409 3.28212 5.69195C2.98804 6.26911 2.98804 7.02489 2.98804 8.53646V14.2941C2.98804 15.8055 2.98804 16.5613 3.28222 17.1387C3.54091 17.6465 3.95384 18.0594 4.46173 18.3181C5.03899 18.6123 5.79478 18.6123 7.30625 18.6123Z" stroke="#6C737F" stroke-width="1.99943" stroke-linecap="round" stroke-linejoin="round"/>
</g>
<defs>
<clipPath id="clip0_0_505">
<rect width="23.99" height="23.99" fill="white" transform="translate(-0.0100021 0.219971)"/>
</clipPath>
</defs>
</svg>
