<svg width="21" height="20" viewBox="0 0 21 20" fill="none" xmlns="http://www.w3.org/2000/svg">
<g clip-path="url(#clip0_0_745)">
<g clip-path="url(#clip1_0_745)">
<path opacity="0.12" d="M10.9818 18.3233C15.5841 18.3233 19.3151 14.5923 19.3151 9.98995C19.3151 5.38753 15.5841 1.65662 10.9818 1.65662C6.37935 1.65662 2.64844 5.38753 2.64844 9.98995C2.64844 14.5923 6.37935 18.3233 10.9818 18.3233Z" fill="#9DA4AE"/>
<path d="M8.89844 6.23995H12.4401C13.4756 6.23995 14.3151 7.07945 14.3151 8.11495C14.3151 9.15045 13.4756 9.98995 12.4401 9.98995H8.89844H12.8568C13.8923 9.98995 14.7318 10.8294 14.7318 11.8649C14.7318 12.9004 13.8923 13.7399 12.8568 13.7399H8.89844M8.89844 6.23995H7.64844M8.89844 6.23995V13.7399M8.89844 13.7399H7.64844M9.3151 4.98995V6.23995M9.3151 13.7399V14.9899M11.8151 4.98995V6.23995M11.8151 13.7399V14.9899M19.3151 9.98995C19.3151 14.5923 15.5841 18.3233 10.9818 18.3233C6.37935 18.3233 2.64844 14.5923 2.64844 9.98995C2.64844 5.38753 6.37935 1.65662 10.9818 1.65662C15.5841 1.65662 19.3151 5.38753 19.3151 9.98995Z" stroke="#9DA4AE" stroke-width="1.66667" stroke-linecap="round" stroke-linejoin="round"/>
</g>
</g>
<defs>
<clipPath id="clip0_0_745">
<rect width="20" height="20" fill="white" transform="translate(0.980469 -0.0100098)"/>
</clipPath>
<clipPath id="clip1_0_745">
<rect width="20" height="20" fill="white" transform="translate(0.980469 -0.0100098)"/>
</clipPath>
</defs>
</svg>
