<svg width="21" height="21" viewBox="0 0 21 21" fill="none" xmlns="http://www.w3.org/2000/svg">
<g clip-path="url(#clip0_0_759)">
<g clip-path="url(#clip1_0_759)">
<path opacity="0.12" d="M8.89647 10.52C10.9675 10.52 12.6465 8.8411 12.6465 6.77002C12.6465 4.69894 10.9675 3.02002 8.89647 3.02002C6.82538 3.02002 5.14647 4.69894 5.14647 6.77002C5.14647 8.8411 6.82547 10.52 8.89647 10.52ZM8.89647 13.02C6.53763 13.02 4.44113 14.3072 3.11255 16.3019C2.82147 16.739 2.67588 16.9575 2.69272 17.2366C2.70572 17.4539 2.84822 17.72 3.02188 17.8514C3.24488 18.02 3.55163 18.02 4.16513 18.02H13.6279C14.2414 18.02 14.5481 18.02 14.7711 17.8514C14.9448 17.72 15.0872 17.4539 15.1003 17.2366C15.1171 16.9575 14.9715 16.739 14.6805 16.3019C13.3519 14.3072 11.2554 13.02 8.89647 13.02Z" fill="#9DA4AE"/>
<path d="M15.9799 13.7174C17.1931 14.3269 18.2334 15.305 18.9926 16.528C19.1429 16.7703 19.2181 16.8914 19.2441 17.059C19.2969 17.3999 19.0639 17.8188 18.7465 17.9537C18.5903 18.02 18.4146 18.02 18.0632 18.02M14.3132 10.1302C15.548 9.5166 16.3965 8.24244 16.3965 6.77002C16.3965 5.2976 15.548 4.02344 14.3132 3.40985M12.6465 6.77002C12.6465 8.8411 10.9676 10.52 8.89653 10.52C6.82544 10.52 5.14653 8.8411 5.14653 6.77002C5.14653 4.69894 6.82553 3.02002 8.89653 3.02002C10.9676 3.02002 12.6465 4.69894 12.6465 6.77002ZM3.11261 16.3019C4.44119 14.3072 6.53769 13.02 8.89653 13.02C11.2554 13.02 13.3519 14.3072 14.6805 16.3019C14.9716 16.739 15.1171 16.9575 15.1004 17.2366C15.0873 17.4539 14.9449 17.72 14.7712 17.8514C14.5482 18.02 14.2414 18.02 13.6279 18.02H4.16519C3.55169 18.02 3.24494 18.02 3.02186 17.8514C2.84828 17.72 2.70578 17.4539 2.69269 17.2366C2.67603 16.9575 2.82153 16.739 3.11261 16.3019Z" stroke="#9DA4AE" stroke-width="1.66667" stroke-linecap="round" stroke-linejoin="round"/>
</g>
</g>
<defs>
<clipPath id="clip0_0_759">
<rect width="20" height="20" fill="white" transform="translate(0.980469 0.52002)"/>
</clipPath>
<clipPath id="clip1_0_759">
<rect width="20" height="20" fill="white" transform="translate(0.980469 0.52002)"/>
</clipPath>
</defs>
</svg>
