<svg width="21" height="21" viewBox="0 0 21 21" fill="none" xmlns="http://www.w3.org/2000/svg">
<g clip-path="url(#clip0_0_856)">
<g clip-path="url(#clip1_0_856)">
<path opacity="0.12" d="M8.45585 10.1466C8.15577 10.1466 8.00569 10.1466 7.8606 10.1208C7.73182 10.0978 7.60618 10.0598 7.48627 10.0075C7.35127 9.94846 7.22627 9.86521 6.9766 9.69879L2.64844 6.81329C2.64844 5.43254 3.76777 4.31329 5.14844 4.31329H16.8151C18.1959 4.31329 19.3151 5.43254 19.3151 6.81329L14.9869 9.69879C14.7372 9.86521 14.6124 9.94846 14.4773 10.0075C14.3574 10.0598 14.2317 10.0978 14.1029 10.1208C13.9579 10.1466 13.8078 10.1466 13.5077 10.1466H8.45585Z" fill="#9DA4AE"/>
<path d="M2.64844 6.81329L6.9766 9.69879C7.22635 9.86521 7.35119 9.94846 7.48627 10.0075C7.60619 10.0598 7.73177 10.0978 7.8606 10.1208C8.0056 10.1466 8.15577 10.1466 8.45585 10.1466H13.5077C13.8078 10.1466 13.9579 10.1466 14.1029 10.1208C14.2317 10.0978 14.3574 10.0598 14.4773 10.0075C14.6124 9.94846 14.7372 9.86521 14.9869 9.69879L19.3151 6.81329M6.64844 17.6466H15.3151C16.7153 17.6466 17.4153 17.6466 17.9501 17.3741C18.4205 17.1345 18.803 16.752 19.0426 16.2816C19.3151 15.7468 19.3151 15.0468 19.3151 13.6466V8.31329C19.3151 6.91313 19.3151 6.21313 19.0426 5.67829C18.8029 5.2079 18.4205 4.82546 17.9501 4.58579C17.4153 4.31329 16.7153 4.31329 15.3151 4.31329H6.64844C5.24827 4.31329 4.54827 4.31329 4.01344 4.58579C3.54305 4.82547 3.16062 5.20791 2.92094 5.67829C2.64844 6.21313 2.64844 6.91313 2.64844 8.31329V13.6466C2.64844 15.0468 2.64844 15.7468 2.92094 16.2816C3.1606 16.752 3.54304 17.1345 4.01344 17.3741C4.54827 17.6466 5.24827 17.6466 6.64844 17.6466Z" stroke="#9DA4AE" stroke-width="1.66667" stroke-linecap="round" stroke-linejoin="round"/>
</g>
</g>
<defs>
<clipPath id="clip0_0_856">
<rect width="20" height="20" fill="white" transform="translate(0.980469 0.97998)"/>
</clipPath>
<clipPath id="clip1_0_856">
<rect width="20" height="20" fill="white" transform="translate(0.980469 0.97998)"/>
</clipPath>
</defs>
</svg>
