<svg width="21" height="21" viewBox="0 0 21 21" fill="none" xmlns="http://www.w3.org/2000/svg">
<g clip-path="url(#clip0_0_786)">
<path opacity="0.12" d="M4.3125 6.89001C4.3125 5.48985 4.3125 4.78985 4.585 4.25501C4.82468 3.78463 5.20712 3.40219 5.6775 3.16251C6.21233 2.89001 6.91233 2.89001 8.3125 2.89001H13.6458C15.046 2.89001 15.746 2.89001 16.2808 3.16251C16.7512 3.40218 17.1337 3.78462 17.3733 4.25501C17.6458 4.78985 17.6458 5.48985 17.6458 6.89001V17.89L15.3542 16.2233L13.2708 17.89L10.9792 16.2233L8.6875 17.89L6.60417 16.2233L4.3125 17.89V6.89001Z" fill="#9DA4AE"/>
<path d="M8.47917 9.14001L10.1458 10.8067L13.8958 7.05668M17.6458 17.89V6.89001C17.6458 5.48985 17.6458 4.78985 17.3733 4.25501C17.1337 3.78462 16.7512 3.40218 16.2808 3.16251C15.746 2.89001 15.046 2.89001 13.6458 2.89001H8.3125C6.91233 2.89001 6.21233 2.89001 5.6775 3.16251C5.20712 3.40219 4.82468 3.78463 4.585 4.25501C4.3125 4.78985 4.3125 5.48985 4.3125 6.89001V17.89L6.60417 16.2233L8.6875 17.89L10.9792 16.2233L13.2708 17.89L15.3542 16.2233L17.6458 17.89Z" stroke="#9DA4AE" stroke-width="1.66667" stroke-linecap="round" stroke-linejoin="round"/>
</g>
<defs>
<clipPath id="clip0_0_786">
<rect width="20" height="20" fill="white" transform="translate(0.980469 0.390015)"/>
</clipPath>
</defs>
</svg>
