<svg width="21" height="21" viewBox="0 0 21 21" fill="none" xmlns="http://www.w3.org/2000/svg">
<g clip-path="url(#clip0_0_795)">
<g clip-path="url(#clip1_0_795)">
<path opacity="0.12" d="M5.3151 3.68335H9.98177C10.9152 3.68335 11.3819 3.68335 11.7384 3.86502C12.052 4.02477 12.307 4.27977 12.4668 4.59335C12.6484 4.94985 12.6484 5.41668 12.6484 6.35002V14.5167H9.3151C9.3151 13.1359 8.19585 12.0167 6.8151 12.0167C5.43969 12.0167 4.32377 13.1273 4.3151 14.5007C3.98827 14.4808 3.75635 14.4358 3.55844 14.335C3.24484 14.1752 2.98988 13.9203 2.8301 13.6067C2.64844 13.2502 2.64844 12.7834 2.64844 11.85V6.35002C2.64844 5.4166 2.64844 4.94985 2.8301 4.59335C2.98989 4.27976 3.24484 4.0248 3.55844 3.86502C3.91494 3.68335 4.38177 3.68335 5.3151 3.68335Z" fill="#9DA4AE"/>
<path d="M12.6484 6.18335H14.5962C14.7999 6.18335 14.9019 6.18335 14.9978 6.20635C15.0828 6.22678 15.1641 6.26047 15.2387 6.30618C15.3228 6.35768 15.3949 6.42977 15.5389 6.57385L18.9246 9.95952C19.0687 10.1036 19.1408 10.1757 19.1923 10.2598C19.238 10.3343 19.2717 10.4156 19.2921 10.5007C19.3151 10.5966 19.3151 10.6985 19.3151 10.9023V13.2667C19.3151 13.6549 19.3151 13.8491 19.2517 14.0023C19.1671 14.2064 19.0049 14.3687 18.8007 14.4533C18.6475 14.5167 18.4534 14.5167 18.0651 14.5167M13.8984 14.5167H12.6484M12.6484 14.5167V6.35002C12.6484 5.4166 12.6484 4.94985 12.4668 4.59335C12.307 4.27975 12.052 4.02479 11.7384 3.86502C11.3819 3.68335 10.9152 3.68335 9.98177 3.68335H5.3151C4.38169 3.68335 3.91494 3.68335 3.55844 3.86502C3.24484 4.0248 2.98989 4.27976 2.8301 4.59335C2.64844 4.94985 2.64844 5.41668 2.64844 6.35002V12.85C2.64844 13.7705 3.3946 14.5167 4.3151 14.5167M12.6484 14.5167H9.3151M4.3151 14.5167C4.3151 15.8974 5.43435 17.0167 6.8151 17.0167C8.19585 17.0167 9.3151 15.8974 9.3151 14.5167M4.3151 14.5167C4.3151 13.1359 5.43435 12.0167 6.8151 12.0167C8.19585 12.0167 9.3151 13.1359 9.3151 14.5167M18.0651 14.9333C18.0651 16.0839 17.1324 17.0167 15.9818 17.0167C14.8312 17.0167 13.8984 16.0839 13.8984 14.9333C13.8984 13.7828 14.8312 12.85 15.9818 12.85C17.1324 12.85 18.0651 13.7828 18.0651 14.9333Z" stroke="#9DA4AE" stroke-width="1.66667" stroke-linecap="round" stroke-linejoin="round"/>
</g>
</g>
<defs>
<clipPath id="clip0_0_795">
<rect width="20" height="20" fill="white" transform="translate(0.980469 0.349976)"/>
</clipPath>
<clipPath id="clip1_0_795">
<rect width="20" height="20" fill="white" transform="translate(0.980469 0.349976)"/>
</clipPath>
</defs>
</svg>
