<svg width="21" height="21" viewBox="0 0 21 21" fill="none" xmlns="http://www.w3.org/2000/svg">
<g clip-path="url(#clip0_0_813)">
<path opacity="0.12" d="M15.9805 2.77002H5.98047V17.77H15.9805V2.77002Z" fill="#9DA4AE"/>
<path d="M8.89583 6.10335H13.0625M8.89583 9.43669H13.0625M8.89583 12.77H13.0625M15.9792 17.77V5.43669C15.9792 4.50327 15.9792 4.03652 15.7975 3.68002C15.6377 3.36642 15.3828 3.11146 15.0692 2.95169C14.7127 2.77002 14.2459 2.77002 13.3125 2.77002H8.64583C7.71242 2.77002 7.24567 2.77002 6.88917 2.95169C6.57557 3.11147 6.32062 3.36643 6.16083 3.68002C5.97917 4.03652 5.97917 4.50335 5.97917 5.43669V17.77M17.6458 17.77H4.3125" stroke="#9DA4AE" stroke-width="1.66667" stroke-linecap="round" stroke-linejoin="round"/>
</g>
<defs>
<clipPath id="clip0_0_813">
<rect width="20" height="20" fill="white" transform="translate(0.980469 0.27002)"/>
</clipPath>
</defs>
</svg>
