<svg width="21" height="21" viewBox="0 0 21 21" fill="none" xmlns="http://www.w3.org/2000/svg">
<g clip-path="url(#clip0_0_846)">
<g clip-path="url(#clip1_0_846)">
<path opacity="0.12" d="M10.9818 18.3833C15.5841 18.3833 19.3151 14.6523 19.3151 10.05C19.3151 5.44759 15.5841 1.71667 10.9818 1.71667C6.37935 1.71667 2.64844 5.44759 2.64844 10.05C2.64844 14.6523 6.37935 18.3833 10.9818 18.3833Z" fill="#9DA4AE"/>
<path d="M14.3151 10.05L10.9818 6.71668M10.9818 6.71668L7.64844 10.05M10.9818 6.71668V14.3833C10.9818 15.5423 10.9818 16.1218 11.4405 16.7705C11.7454 17.2016 12.6229 17.7336 13.1461 17.8045C13.9335 17.9112 14.2325 17.7552 14.8306 17.4433C17.4957 16.053 19.3151 13.264 19.3151 10.05C19.3151 5.44759 15.5841 1.71667 10.9818 1.71667C6.37935 1.71667 2.64844 5.44759 2.64844 10.05C2.64844 13.1345 4.32427 15.8276 6.8151 17.2685" stroke="#9DA4AE" stroke-width="1.66667" stroke-linecap="round" stroke-linejoin="round"/>
</g>
</g>
<defs>
<clipPath id="clip0_0_846">
<rect width="20" height="20" fill="white" transform="translate(0.980469 0.0499878)"/>
</clipPath>
<clipPath id="clip1_0_846">
<rect width="20" height="20" fill="white" transform="translate(0.980469 0.0499878)"/>
</clipPath>
</defs>
</svg>
