<svg width="21" height="20" viewBox="0 0 21 20" fill="none" xmlns="http://www.w3.org/2000/svg">
<g clip-path="url(#clip0_0_851)">
<g clip-path="url(#clip1_0_851)">
<path opacity="0.12" d="M2.64844 9.34336C2.64844 8.40995 2.64844 7.9432 2.8301 7.5867C2.98989 7.2731 3.24484 7.01815 3.55844 6.85836C3.91494 6.6767 4.38177 6.6767 5.3151 6.6767H11.6484C12.5819 6.6767 13.0486 6.6767 13.4051 6.85836C13.7187 7.01811 13.9737 7.27311 14.1334 7.5867C14.3151 7.9432 14.3151 8.41003 14.3151 9.34336V15.6767C14.3151 16.6101 14.3151 17.0769 14.1334 17.4334C13.9737 17.747 13.7187 18.0019 13.4051 18.1617C13.0486 18.3434 12.5819 18.3434 11.6484 18.3434H5.3151C4.38169 18.3434 3.91494 18.3434 3.55844 18.1617C3.24484 18.0019 2.98988 17.747 2.8301 17.4334C2.64844 17.0769 2.64844 16.6101 2.64844 15.6767V9.34336Z" fill="#9DA4AE"/>
<path d="M5.98177 12.51L7.64844 14.1767L11.3984 10.4267M7.64844 6.6767V4.34336C7.64844 3.40995 7.64844 2.9432 7.8301 2.5867C7.98989 2.2731 8.24484 2.01815 8.55844 1.85836C8.91494 1.6767 9.38177 1.6767 10.3151 1.6767H16.6484C17.5819 1.6767 18.0486 1.6767 18.4051 1.85836C18.7187 2.01811 18.9737 2.27311 19.1334 2.5867C19.3151 2.9432 19.3151 3.41003 19.3151 4.34336V10.6767C19.3151 11.6101 19.3151 12.0769 19.1334 12.4334C18.9737 12.747 18.7187 13.0019 18.4051 13.1617C18.0486 13.3434 17.5819 13.3434 16.6484 13.3434H14.3151M5.3151 18.3434H11.6484C12.5819 18.3434 13.0486 18.3434 13.4051 18.1617C13.7187 18.0019 13.9737 17.747 14.1334 17.4334C14.3151 17.0769 14.3151 16.6101 14.3151 15.6767V9.34336C14.3151 8.40995 14.3151 7.9432 14.1334 7.5867C13.9737 7.2731 13.7187 7.01814 13.4051 6.85836C13.0486 6.6767 12.5819 6.6767 11.6484 6.6767H5.3151C4.38169 6.6767 3.91494 6.6767 3.55844 6.85836C3.24484 7.01815 2.98989 7.2731 2.8301 7.5867C2.64844 7.9432 2.64844 8.41003 2.64844 9.34336V15.6767C2.64844 16.6101 2.64844 17.0769 2.8301 17.4334C2.98985 17.7469 3.24485 18.0019 3.55844 18.1617C3.91494 18.3434 4.38177 18.3434 5.3151 18.3434Z" stroke="#9DA4AE" stroke-width="1.66667" stroke-linecap="round" stroke-linejoin="round"/>
</g>
</g>
<defs>
<clipPath id="clip0_0_851">
<rect width="20" height="20" fill="white" transform="translate(0.980469 0.0100098)"/>
</clipPath>
<clipPath id="clip1_0_851">
<rect width="20" height="20" fill="white" transform="translate(0.980469 0.0100098)"/>
</clipPath>
</defs>
</svg>
