<svg width="21" height="21" viewBox="0 0 21 21" fill="none" xmlns="http://www.w3.org/2000/svg">
<g clip-path="url(#clip0_0_777)">
<g clip-path="url(#clip1_0_777)">
<path opacity="0.12" d="M15.4396 14.1799H8.30798C7.4829 14.1799 7.07031 14.1799 6.73906 14.0278C6.44719 13.8936 6.20029 13.678 6.02806 13.4068C5.83256 13.0992 5.77698 12.6903 5.66573 11.8728L4.78906 5.42993H18.5073C18.7837 5.42993 18.922 5.42993 19.0192 5.4866C19.1045 5.53632 19.1694 5.61473 19.2023 5.70785C19.2398 5.81401 19.2139 5.94976 19.1622 6.22135L18.0591 12.0123C17.9122 12.7838 17.8387 13.1696 17.6398 13.4584C17.4645 13.7131 17.2217 13.914 16.9387 14.0386C16.6178 14.1799 16.2251 14.1799 15.4396 14.1799Z" fill="#9DA4AE"/>
<path d="M2.64844 2.09656H3.73694C3.94194 2.09656 4.04444 2.09656 4.12694 2.13422C4.19965 2.16746 4.26127 2.22092 4.30444 2.28822C4.35335 2.36447 4.36785 2.46597 4.39694 2.66897L4.79119 5.42989M4.79119 5.42989L5.66785 11.8727C5.77902 12.6903 5.8346 13.0991 6.0301 13.4068C6.20235 13.678 6.44927 13.8936 6.74119 14.0277C7.07244 14.1799 7.48494 14.1799 8.3101 14.1799H15.4417C16.2271 14.1799 16.6199 14.1799 16.9409 14.0386C17.2238 13.9139 17.4666 13.713 17.6419 13.4584C17.8408 13.1696 17.9143 12.7838 18.0613 12.0122L19.1643 6.22131C19.216 5.94972 19.2419 5.81397 19.2044 5.70781C19.1715 5.61468 19.1066 5.53626 19.0213 5.48656C18.9241 5.42989 18.7859 5.42989 18.5094 5.42989H4.79119ZM9.3151 17.9299C9.3151 18.3901 8.94202 18.7632 8.48177 18.7632C8.02152 18.7632 7.64844 18.3901 7.64844 17.9299C7.64844 17.4696 8.02152 17.0966 8.48177 17.0966C8.94202 17.0966 9.3151 17.4696 9.3151 17.9299ZM15.9818 17.9299C15.9818 18.3901 15.6087 18.7632 15.1484 18.7632C14.6882 18.7632 14.3151 18.3901 14.3151 17.9299C14.3151 17.4696 14.6882 17.0966 15.1484 17.0966C15.6087 17.0966 15.9818 17.4696 15.9818 17.9299Z" stroke="#9DA4AE" stroke-width="1.66667" stroke-linecap="round" stroke-linejoin="round"/>
</g>
</g>
<defs>
<clipPath id="clip0_0_777">
<rect width="20" height="20" fill="white" transform="translate(0.980469 0.429932)"/>
</clipPath>
<clipPath id="clip1_0_777">
<rect width="20" height="20" fill="white" transform="translate(0.980469 0.429932)"/>
</clipPath>
</defs>
</svg>
