<svg width="21" height="21" viewBox="0 0 21 21" fill="none" xmlns="http://www.w3.org/2000/svg">
<g clip-path="url(#clip0_0_730)">
<path opacity="0.12" d="M3.48047 9.18426C3.48047 8.70559 3.48047 8.46626 3.54214 8.24592C3.59678 8.0507 3.68658 7.86708 3.80714 7.70409C3.94322 7.52009 4.13214 7.37317 4.50997 7.07926L10.1619 2.68334C10.4546 2.45567 10.6011 2.34176 10.7627 2.29801C10.9053 2.25939 11.0556 2.25939 11.1982 2.29801C11.3599 2.34176 11.5063 2.45559 11.7991 2.68334L17.451 7.07926C17.8288 7.37317 18.0177 7.52009 18.1538 7.70409C18.2743 7.86701 18.3641 8.05067 18.4188 8.24592C18.4805 8.46626 18.4805 8.70559 18.4805 9.18426V15.2133C18.4805 16.1468 18.4805 16.6134 18.2988 16.97C18.139 17.2836 17.8841 17.5386 17.5705 17.6983C17.214 17.88 16.7472 17.88 15.8138 17.88H6.14714C5.21372 17.88 4.74697 17.88 4.39047 17.6983C4.07687 17.5386 3.82191 17.2836 3.66214 16.97C3.48047 16.6134 3.48047 16.1468 3.48047 15.2133V9.18426Z" fill="#9DA4AE"/>
<path d="M7.75214 12.0467C8.12214 13.4843 9.4273 14.5467 10.9805 14.5467C12.5336 14.5467 13.8387 13.4843 14.2088 12.0467M10.1619 2.68334L4.50997 7.07926C4.13214 7.37317 3.9433 7.52009 3.80714 7.70409C3.68658 7.86708 3.59678 8.0507 3.54214 8.24592C3.48047 8.46626 3.48047 8.70559 3.48047 9.18417V15.2133C3.48047 16.1468 3.48047 16.6134 3.66214 16.97C3.82189 17.2836 4.07689 17.5386 4.39047 17.6983C4.74697 17.88 5.2138 17.88 6.14714 17.88H15.8138C16.7472 17.88 17.214 17.88 17.5705 17.6983C17.8841 17.5386 18.139 17.2836 18.2988 16.97C18.4805 16.6134 18.4805 16.1468 18.4805 15.2133V9.18426C18.4805 8.70559 18.4805 8.46626 18.4188 8.24592C18.3641 8.05071 18.2743 7.8671 18.1538 7.70409C18.0177 7.52009 17.8288 7.37317 17.451 7.07926L11.7991 2.68334C11.5063 2.45567 11.3599 2.34176 11.1982 2.29801C11.0556 2.25939 10.9053 2.25939 10.7627 2.29801C10.6011 2.34176 10.4546 2.45559 10.1619 2.68334Z" stroke="#9DA4AE" stroke-width="1.66667" stroke-linecap="round" stroke-linejoin="round"/>
</g>
<defs>
<clipPath id="clip0_0_730">
<rect width="20" height="20" fill="white" transform="translate(0.980469 0.380005)"/>
</clipPath>
</defs>
</svg>
