<svg width="21" height="21" viewBox="0 0 21 21" fill="none" xmlns="http://www.w3.org/2000/svg">
<g clip-path="url(#clip0_0_735)">
<path opacity="0.12" d="M3.48047 6.83997C3.48047 5.4398 3.48047 4.7398 3.75297 4.20497C3.99265 3.73458 4.37508 3.35215 4.84547 3.11247C5.3803 2.83997 6.0803 2.83997 7.48047 2.83997H14.4805C15.8806 2.83997 16.5806 2.83997 17.1155 3.11247C17.5859 3.35213 17.9683 3.73457 18.208 4.20497C18.4805 4.7398 18.4805 5.4398 18.4805 6.83997V13.84C18.4805 15.2401 18.4805 15.9401 18.208 16.475C17.9683 16.9454 17.5859 17.3278 17.1155 17.5675C16.5806 17.84 15.8806 17.84 14.4805 17.84H7.48047C6.0803 17.84 5.3803 17.84 4.84547 17.5675C4.37507 17.3278 3.99263 16.9454 3.75297 16.475C3.48047 15.9401 3.48047 15.2401 3.48047 13.84V6.83997Z" fill="#9DA4AE"/>
<path d="M7.64714 12.84V14.5066M10.9805 9.50663V14.5066M14.3138 6.1733V14.5066M7.48047 17.84H14.4805C15.8806 17.84 16.5806 17.84 17.1155 17.5675C17.5859 17.3278 17.9683 16.9454 18.208 16.475C18.4805 15.9401 18.4805 15.2401 18.4805 13.84V6.83997C18.4805 5.4398 18.4805 4.7398 18.208 4.20497C17.9683 3.73457 17.5859 3.35213 17.1155 3.11247C16.5806 2.83997 15.8806 2.83997 14.4805 2.83997H7.48047C6.0803 2.83997 5.3803 2.83997 4.84547 3.11247C4.37508 3.35215 3.99265 3.73458 3.75297 4.20497C3.48047 4.7398 3.48047 5.4398 3.48047 6.83997V13.84C3.48047 15.2401 3.48047 15.9401 3.75297 16.475C3.99263 16.9454 4.37507 17.3278 4.84547 17.5675C5.3803 17.84 6.0803 17.84 7.48047 17.84Z" stroke="#9DA4AE" stroke-width="1.66667" stroke-linecap="round" stroke-linejoin="round"/>
</g>
<defs>
<clipPath id="clip0_0_735">
<rect width="20" height="20" fill="white" transform="translate(0.980469 0.339966)"/>
</clipPath>
</defs>
</svg>
