<svg width="21" height="21" viewBox="0 0 21 21" fill="none" xmlns="http://www.w3.org/2000/svg">
<g clip-path="url(#clip0_0_740)">
<path opacity="0.12" d="M7.48047 17.8101H14.4805C15.8806 17.8101 16.5806 17.8101 17.1155 17.5376C17.5859 17.2979 17.9683 16.9155 18.208 16.4451C18.4805 15.9102 18.4805 15.2102 18.4805 13.8101V7.81006L13.1067 11.6485C12.9434 11.7651 12.8618 11.8234 12.7744 11.841C12.6973 11.8565 12.6174 11.8499 12.544 11.8219C12.4606 11.7902 12.3896 11.7192 12.2478 11.5774L9.71314 9.04273C9.5713 8.90089 9.5003 8.82989 9.41697 8.79822C9.34351 8.77024 9.26362 8.76362 9.18655 8.77914C9.09913 8.79673 9.01755 8.85506 8.85422 8.97164L3.48047 12.8101V13.8101C3.48047 15.2102 3.48047 15.9102 3.75297 16.4451C3.99263 16.9155 4.37507 17.2979 4.84547 17.5376C5.3803 17.8101 6.0803 17.8101 7.48047 17.8101Z" fill="#9DA4AE"/>
<path d="M18.4805 7.81006L13.1067 11.6485C12.9434 11.7651 12.8618 11.8234 12.7744 11.841C12.6973 11.8565 12.6174 11.8499 12.544 11.8219C12.4606 11.7902 12.3896 11.7192 12.2478 11.5774L9.71314 9.04273C9.5713 8.90089 9.5003 8.82989 9.41697 8.79822C9.34351 8.77024 9.26362 8.76362 9.18655 8.77914C9.09913 8.79673 9.01755 8.85506 8.85422 8.97164L3.48047 12.8101M7.48047 17.8101H14.4805C15.8806 17.8101 16.5806 17.8101 17.1155 17.5376C17.5859 17.2979 17.9683 16.9155 18.208 16.4451C18.4805 15.9102 18.4805 15.2102 18.4805 13.8101V6.81006C18.4805 5.40989 18.4805 4.70989 18.208 4.17506C17.9683 3.70466 17.5859 3.32222 17.1155 3.08256C16.5806 2.81006 15.8806 2.81006 14.4805 2.81006H7.48047C6.0803 2.81006 5.3803 2.81006 4.84547 3.08256C4.37508 3.32224 3.99265 3.70467 3.75297 4.17506C3.48047 4.70989 3.48047 5.40989 3.48047 6.81006V13.8101C3.48047 15.2102 3.48047 15.9102 3.75297 16.4451C3.99263 16.9155 4.37507 17.2979 4.84547 17.5376C5.3803 17.8101 6.0803 17.8101 7.48047 17.8101Z" stroke="#9DA4AE" stroke-width="1.66667" stroke-linecap="round" stroke-linejoin="round"/>
</g>
<defs>
<clipPath id="clip0_0_740">
<rect width="20" height="20" fill="white" transform="translate(0.980469 0.310059)"/>
</clipPath>
</defs>
</svg>
