<svg width="21" height="21" viewBox="0 0 21 21" fill="none" xmlns="http://www.w3.org/2000/svg">
<g clip-path="url(#clip0_0_768)">
<path opacity="0.12" d="M14.5488 17.98C16.0578 17.98 16.8123 17.98 17.3692 17.6785C17.8585 17.4136 18.2454 16.9931 18.4688 16.4835C18.7229 15.9035 18.6603 15.1516 18.535 13.6478L17.9517 6.64781C17.8438 5.35398 17.7899 4.70698 17.5034 4.2174C17.2511 3.78624 16.8754 3.44055 16.4248 3.2249C15.913 2.97998 15.2638 2.97998 13.9655 2.97998H7.99317C6.69484 2.97998 6.04567 2.97998 5.53392 3.22481C5.08328 3.44044 4.70757 3.78614 4.45526 4.21731C4.16876 4.70698 4.11484 5.35398 4.00701 6.64781L3.42368 13.6478C3.29834 15.1516 3.23568 15.9035 3.48993 16.4835C3.71325 16.9931 4.10021 17.4136 4.58951 17.6785C5.14634 17.98 5.90084 17.98 7.40984 17.98H14.5488Z" fill="#9DA4AE"/>
<path d="M14.3127 7.14665C14.3127 7.58439 14.2265 8.01784 14.059 8.42226C13.8914 8.82668 13.6459 9.19413 13.3363 9.50365C13.0268 9.81321 12.6594 10.0588 12.255 10.2263C11.8505 10.3938 11.4171 10.4801 10.9793 10.4801C10.5416 10.4801 10.1081 10.3938 9.70372 10.2263C9.2993 10.0588 8.93185 9.81321 8.62234 9.50365C8.31281 9.19413 8.06727 8.82667 7.89975 8.42225C7.73223 8.01784 7.64601 7.58439 7.64601 7.14665M4.00701 6.64781L3.42368 13.6478C3.29834 15.1516 3.23568 15.9035 3.48993 16.4835C3.71325 16.9931 4.10021 17.4136 4.58951 17.6785C5.14634 17.98 5.90084 17.98 7.40984 17.98H14.5488C16.0578 17.98 16.8123 17.98 17.3692 17.6785C17.8585 17.4136 18.2454 16.9931 18.4688 16.4835C18.7229 15.9035 18.6603 15.1516 18.535 13.6478L17.9517 6.64781C17.8438 5.35398 17.7899 4.70698 17.5034 4.2174C17.2511 3.78624 16.8754 3.44055 16.4248 3.2249C15.913 2.97998 15.2638 2.97998 13.9655 2.97998H7.99317C6.69484 2.97998 6.04567 2.97998 5.53392 3.22481C5.08328 3.44044 4.70757 3.78614 4.45526 4.21731C4.16876 4.70698 4.11484 5.35398 4.00701 6.64781Z" stroke="#9DA4AE" stroke-width="1.66667" stroke-linecap="round" stroke-linejoin="round"/>
</g>
<defs>
<clipPath id="clip0_0_768">
<rect width="20" height="20" fill="white" transform="translate(0.980469 0.47998)"/>
</clipPath>
</defs>
</svg>
