<svg width="21" height="21" viewBox="0 0 21 21" fill="none" xmlns="http://www.w3.org/2000/svg">
<g clip-path="url(#clip0_0_804)">
<g clip-path="url(#clip1_0_804)">
<path opacity="0.12" d="M11.2799 3.3759C11.1706 3.32123 11.1159 3.2939 11.0586 3.28315C11.0078 3.27362 10.9557 3.27362 10.9049 3.28315C10.8476 3.2939 10.7929 3.32123 10.6836 3.3759L2.64844 7.3934L10.6836 11.4111C10.7929 11.4657 10.8476 11.4931 10.9049 11.5038C10.9557 11.5133 11.0078 11.5133 11.0586 11.5038C11.1159 11.4931 11.1706 11.4657 11.2799 11.4111L19.3151 7.39348L11.2799 3.3759Z" fill="#9DA4AE"/>
<path d="M5.14844 8.64348V13.6527C5.14844 13.9519 5.14844 14.1014 5.19394 14.2335C5.23422 14.3503 5.29998 14.4566 5.38644 14.5448C5.48419 14.6447 5.61794 14.7116 5.88552 14.8453L10.3855 17.0953C10.6041 17.2047 10.7134 17.2593 10.8281 17.2808C10.9297 17.2998 11.0339 17.2998 11.1354 17.2808C11.2501 17.2593 11.3594 17.2047 11.578 17.0953L16.078 14.8453C16.3456 14.7116 16.4794 14.6447 16.5771 14.5448C16.6635 14.4566 16.7293 14.3502 16.7695 14.2335C16.8151 14.1014 16.8151 13.9519 16.8151 13.6527V8.64348M2.64844 7.39348L10.6836 3.3759C10.7929 3.32123 10.8476 3.2939 10.9049 3.28315C10.9557 3.27362 11.0078 3.27362 11.0586 3.28315C11.1159 3.2939 11.1706 3.32123 11.2799 3.3759L19.3151 7.3934L11.2799 11.4111C11.1706 11.4657 11.1159 11.4931 11.0586 11.5038C11.0078 11.5133 10.9557 11.5133 10.9049 11.5038C10.8476 11.4931 10.7929 11.4657 10.6836 11.4111L2.64844 7.39348Z" stroke="#9DA4AE" stroke-width="1.66667" stroke-linecap="round" stroke-linejoin="round"/>
</g>
</g>
<defs>
<clipPath id="clip0_0_804">
<rect width="20" height="20" fill="white" transform="translate(0.980469 0.310059)"/>
</clipPath>
<clipPath id="clip1_0_804">
<rect width="20" height="20" fill="white" transform="translate(0.980469 0.310059)"/>
</clipPath>
</defs>
</svg>
