<svg width="21" height="21" viewBox="0 0 21 21" fill="none" xmlns="http://www.w3.org/2000/svg">
<g clip-path="url(#clip0_0_753)">
<path opacity="0.12" d="M3.48047 9.46429C3.48047 8.98562 3.48047 8.74629 3.54214 8.52595C3.59678 8.33073 3.68658 8.14711 3.80714 7.98412C3.94322 7.80012 4.13214 7.6532 4.50997 7.35929L10.1619 2.96337C10.4546 2.7357 10.6011 2.62179 10.7627 2.57804C10.9053 2.53942 11.0556 2.53942 11.1982 2.57804C11.3599 2.62179 11.5063 2.73562 11.7991 2.96337L17.451 7.35929C17.8288 7.6532 18.0177 7.80012 18.1538 7.98412C18.2743 8.14704 18.3641 8.3307 18.4188 8.52595C18.4805 8.74629 18.4805 8.98562 18.4805 9.46429V15.4934C18.4805 16.4268 18.4805 16.8935 18.2988 17.25C18.139 17.5636 17.8841 17.8186 17.5705 17.9784C17.214 18.16 16.7472 18.16 15.8138 18.16H6.14714C5.21372 18.16 4.74697 18.16 4.39047 17.9784C4.07687 17.8186 3.82191 17.5636 3.66214 17.25C3.48047 16.8935 3.48047 16.4268 3.48047 15.4934V9.46429Z" fill="#9DA4AE"/>
<path d="M7.75214 12.3267C8.12214 13.7644 9.4273 14.8267 10.9805 14.8267C12.5336 14.8267 13.8387 13.7644 14.2088 12.3267M10.1619 2.96337L4.50997 7.35929C4.13214 7.6532 3.9433 7.80012 3.80714 7.98412C3.68658 8.14711 3.59678 8.33073 3.54214 8.52595C3.48047 8.74629 3.48047 8.98562 3.48047 9.4642V15.4934C3.48047 16.4268 3.48047 16.8935 3.66214 17.25C3.82189 17.5636 4.07689 17.8186 4.39047 17.9784C4.74697 18.16 5.2138 18.16 6.14714 18.16H15.8138C16.7472 18.16 17.214 18.16 17.5705 17.9784C17.8841 17.8186 18.139 17.5636 18.2988 17.25C18.4805 16.8935 18.4805 16.4268 18.4805 15.4934V9.46429C18.4805 8.98562 18.4805 8.74629 18.4188 8.52595C18.3641 8.33074 18.2743 8.14713 18.1538 7.98412C18.0177 7.80012 17.8288 7.6532 17.451 7.35929L11.7991 2.96337C11.5063 2.7357 11.3599 2.62179 11.1982 2.57804C11.0556 2.53942 10.9053 2.53942 10.7627 2.57804C10.6011 2.62179 10.4546 2.73562 10.1619 2.96337Z" stroke="#9DA4AE" stroke-width="1.66667" stroke-linecap="round" stroke-linejoin="round"/>
</g>
<defs>
<clipPath id="clip0_0_753">
<rect width="20" height="20" fill="white" transform="translate(0.980469 0.660034)"/>
</clipPath>
</defs>
</svg>
