<svg width="21" height="21" viewBox="0 0 21 21" fill="none" xmlns="http://www.w3.org/2000/svg">
<g clip-path="url(#clip0_0_822)">
<path opacity="0.12" d="M15.9805 6.89661C17.3612 6.89661 18.4805 5.77736 18.4805 4.39661C18.4805 3.01594 17.3612 1.89661 15.9805 1.89661C14.5997 1.89661 13.4805 3.01594 13.4805 4.39661C13.4805 5.77736 14.5997 6.89661 15.9805 6.89661ZM5.98047 12.7299C7.36122 12.7299 8.48047 11.6107 8.48047 10.2299C8.48047 8.84919 7.36122 7.72994 5.98047 7.72994C4.59972 7.72994 3.48047 8.84919 3.48047 10.2299C3.48047 11.6107 4.59972 12.7299 5.98047 12.7299ZM15.9805 18.5633C17.3612 18.5633 18.4805 17.444 18.4805 16.0633C18.4805 14.6825 17.3612 13.5633 15.9805 13.5633C14.5997 13.5633 13.4805 14.6825 13.4805 16.0633C13.4805 17.444 14.5997 18.5633 15.9805 18.5633Z" fill="#9DA4AE"/>
<path d="M8.1388 11.4883L13.8305 14.8049M13.8221 5.65494L8.1388 8.97161M18.4805 4.39661C18.4805 5.77736 17.3612 6.89661 15.9805 6.89661C14.5997 6.89661 13.4805 5.77736 13.4805 4.39661C13.4805 3.01594 14.5997 1.89661 15.9805 1.89661C17.3612 1.89661 18.4805 3.01594 18.4805 4.39661ZM8.48047 10.2299C8.48047 11.6107 7.36122 12.7299 5.98047 12.7299C4.59972 12.7299 3.48047 11.6107 3.48047 10.2299C3.48047 8.84919 4.59972 7.72994 5.98047 7.72994C7.36122 7.72994 8.48047 8.84919 8.48047 10.2299ZM18.4805 16.0633C18.4805 17.444 17.3612 18.5633 15.9805 18.5633C14.5997 18.5633 13.4805 17.444 13.4805 16.0633C13.4805 14.6825 14.5997 13.5633 15.9805 13.5633C17.3612 13.5633 18.4805 14.6825 18.4805 16.0633Z" stroke="#9DA4AE" stroke-width="1.66667" stroke-linecap="round" stroke-linejoin="round"/>
</g>
<defs>
<clipPath id="clip0_0_822">
<rect width="20" height="20" fill="white" transform="translate(0.980469 0.22998)"/>
</clipPath>
</defs>
</svg>
