<svg width="25" height="24" viewBox="0 0 25 24" fill="none" xmlns="http://www.w3.org/2000/svg">
<g clip-path="url(#clip0_0_704)">
<path d="M16.6093 8.39653C16.6093 6.96496 16.0406 5.59202 15.0283 4.57974C14.016 3.56747 12.6431 2.99878 11.2115 2.99878C9.77994 2.99878 8.407 3.56747 7.39473 4.57974C6.38245 5.59202 5.81376 6.96496 5.81376 8.39653C5.81376 11.1766 5.11246 13.08 4.32908 14.339C3.66836 15.4009 3.3379 15.9319 3.34999 16.08C3.36339 16.2441 3.39817 16.3065 3.53032 16.4046C3.64967 16.4932 4.18784 16.4932 5.26399 16.4932H17.159C18.2353 16.4932 18.7734 16.4932 18.8927 16.4046C19.0249 16.3065 19.0596 16.2441 19.073 16.08C19.0851 15.9319 18.7548 15.4009 18.0939 14.339C17.3106 13.08 16.6093 11.1766 16.6093 8.39653Z" fill="white" fill-opacity="0.01"/>
<path d="M8.83131 20.0917C9.46564 20.6515 10.2989 20.9913 11.2115 20.9913C12.1241 20.9913 12.9574 20.6515 13.5918 20.0917M16.6093 8.39653C16.6093 6.96496 16.0406 5.59202 15.0283 4.57974C14.016 3.56747 12.6431 2.99878 11.2115 2.99878C9.77994 2.99878 8.407 3.56747 7.39473 4.57974C6.38245 5.59202 5.81376 6.96496 5.81376 8.39653C5.81376 11.1766 5.11246 13.08 4.32908 14.339C3.66836 15.4009 3.3379 15.9319 3.34999 16.08C3.36339 16.2441 3.39817 16.3065 3.53032 16.4046C3.64967 16.4932 4.18784 16.4932 5.26399 16.4932H17.159C18.2353 16.4932 18.7734 16.4932 18.8927 16.4046C19.0249 16.3065 19.0596 16.2441 19.073 16.08C19.0851 15.9319 18.7548 15.4009 18.0939 14.339C17.3106 13.08 16.6093 11.1766 16.6093 8.39653Z" stroke="#6C737F" stroke-width="1.99943" stroke-linecap="round" stroke-linejoin="round"/>
</g>
<defs>
<clipPath id="clip0_0_704">
<rect width="23.99" height="23.99" fill="white" transform="translate(0.0900269)"/>
</clipPath>
</defs>
</svg>
