<svg width="25" height="25" viewBox="0 0 25 25" fill="none" xmlns="http://www.w3.org/2000/svg">
<g clip-path="url(#clip0_0_541)">
<path d="M12.6252 20.4016C17.5937 20.4016 21.6214 16.3739 21.6214 11.4054C21.6214 6.43684 17.5937 2.40912 12.6252 2.40912C7.65663 2.40912 3.62891 6.43684 3.62891 11.4054C3.62891 16.3739 7.65663 20.4016 12.6252 20.4016Z" fill="white" fill-opacity="0.01"/>
<path d="M12.625 6.00763V11.4061L16.224 13.2056" fill="white" fill-opacity="0.01"/>
<path d="M12.6252 6.00762V11.4054L16.2237 13.2046M21.6214 11.4054C21.6214 16.3739 17.5937 20.4016 12.6252 20.4016C7.65663 20.4016 3.62891 16.3739 3.62891 11.4054C3.62891 6.43684 7.65663 2.40912 12.6252 2.40912C17.5937 2.40912 21.6214 6.43684 21.6214 11.4054Z" stroke="#6C737F" stroke-width="1.99943" stroke-linecap="round" stroke-linejoin="round"/>
</g>
<defs>
<clipPath id="clip0_0_541">
<rect width="23.99" height="23.99" fill="white" transform="translate(0.630859 0.409973)"/>
</clipPath>
</defs>
</svg>
