<svg width="19" height="19" viewBox="0 0 19 19" fill="none" xmlns="http://www.w3.org/2000/svg">
<g clip-path="url(#clip0_0_443)">
<path d="M7.85923 8.70065C9.16328 8.70065 10.2204 7.64351 10.2204 6.33946C10.2204 5.03541 9.16328 3.97827 7.85923 3.97827C6.55518 3.97827 5.49805 5.03541 5.49805 6.33946C5.49805 7.64351 6.55518 8.70065 7.85923 8.70065Z" fill="white" fill-opacity="0.01"/>
<path d="M14.6053 8.02602V3.97827M12.5815 6.00215H16.6292M12.5815 15.4469V14.6373C12.5815 13.5039 12.5815 12.9371 12.3609 12.5042C12.1669 12.1234 11.8572 11.8138 11.4764 11.6197C11.0435 11.3991 10.4767 11.3991 9.34327 11.3991H6.37492C5.24147 11.3991 4.67471 11.3991 4.24175 11.6197C3.86092 11.8138 3.55129 12.1234 3.35725 12.5042C3.13672 12.9371 3.13672 13.5039 3.13672 14.6373V15.4469M10.2203 6.33946C10.2203 7.64351 9.16314 8.70065 7.85909 8.70065C6.55504 8.70065 5.49791 7.64351 5.49791 6.33946C5.49791 5.03541 6.55504 3.97827 7.85909 3.97827C9.16314 3.97827 10.2203 5.03541 10.2203 6.33946Z" stroke="#6366F1" stroke-width="1.49884" stroke-linecap="round" stroke-linejoin="round"/>
</g>
<defs>
<clipPath id="clip0_0_443">
<rect width="17.99" height="17.99" fill="white" transform="translate(0.888672 0.97998)"/>
</clipPath>
</defs>
</svg>
