<svg width="19" height="19" viewBox="0 0 19 19" fill="none" xmlns="http://www.w3.org/2000/svg">
<g clip-path="url(#clip0_0_449)">
<path d="M16.2613 10.7096C16.2613 9.95393 16.2613 9.57614 16.1142 9.28747C15.9848 9.0336 15.7784 8.8272 15.5246 8.69785C15.2359 8.55078 14.8581 8.55078 14.1025 8.55078H10.3246C9.56892 8.55078 9.19113 8.55078 8.90246 8.69785C8.6486 8.8272 8.4422 9.0336 8.31284 9.28747C8.16577 9.57614 8.16577 9.95393 8.16577 10.7096V12.4058C8.16577 13.1615 8.16577 13.5393 8.31284 13.8278C8.44222 14.0817 8.64858 14.2882 8.90246 14.4175C9.19113 14.5646 9.56892 14.5646 10.3246 14.5646H11.5368C11.7882 14.5646 11.9139 14.5646 12.0351 14.587C12.1428 14.6067 12.2476 14.6396 12.3472 14.6848C12.4595 14.7356 12.5628 14.8074 12.7691 14.9509L14.2374 15.9717V14.5646C14.8661 14.5646 15.1804 14.5646 15.4283 14.4618C15.592 14.3941 15.7408 14.2947 15.8661 14.1694C15.9914 14.0441 16.0908 13.8954 16.1586 13.7317C16.2613 13.4837 16.2613 13.1694 16.2613 12.5407V10.7096Z" fill="white" fill-opacity="0.01"/>
<path d="M8.16433 11.2493L6.08971 13.3498C5.80037 13.6428 5.65563 13.7894 5.53127 13.7996C5.47807 13.8041 5.42458 13.7958 5.37519 13.7756C5.32581 13.7553 5.28193 13.7236 5.24718 13.6831C5.166 13.5883 5.166 13.3824 5.166 12.9706V11.9183C5.166 11.5488 4.86347 11.2814 4.4979 11.2279C4.06704 11.1648 3.66802 10.9644 3.36011 10.6565C3.0522 10.3486 2.85181 9.94955 2.7887 9.51869C2.76733 9.37282 2.76733 9.19877 2.76733 8.85058V5.71733C2.76733 4.58388 2.76733 4.01712 2.98794 3.58416C3.18198 3.20332 3.49161 2.89369 3.87244 2.69965C4.30525 2.47913 4.87201 2.47913 6.00553 2.47913H10.9978C12.1312 2.47913 12.698 2.47913 13.1309 2.69973C13.5117 2.89372 13.8214 3.20337 14.0154 3.58424C14.236 4.01712 14.236 4.58388 14.236 5.71733V8.55075M14.236 15.9716L12.7677 14.9508C12.5613 14.8074 12.4581 14.7356 12.3458 14.6847C12.2461 14.6396 12.1413 14.6067 12.0337 14.5869C11.9125 14.5646 11.7868 14.5646 11.5354 14.5646H10.3231C9.56748 14.5646 9.18969 14.5646 8.90102 14.4175C8.64716 14.2881 8.44076 14.0817 8.3114 13.8278C8.16433 13.5392 8.16433 13.1614 8.16433 12.4058V10.7096C8.16433 9.9539 8.16433 9.57611 8.3114 9.28744C8.44076 9.03358 8.64716 8.82717 8.90102 8.69782C9.18969 8.55075 9.56748 8.55075 10.3231 8.55075H14.101C14.8567 8.55075 15.2345 8.55075 15.5231 8.69782C15.777 8.82717 15.9834 9.03358 16.1128 9.28744C16.2598 9.57611 16.2598 9.9539 16.2598 10.7096V12.5407C16.2598 13.1694 16.2598 13.4837 16.1571 13.7316C16.0893 13.8953 15.9899 14.0441 15.8647 14.1694C15.7394 14.2947 15.5906 14.394 15.4269 14.4618C15.1789 14.5646 14.8646 14.5646 14.236 14.5646V15.9716Z" stroke="white" stroke-width="1.49884" stroke-linecap="round" stroke-linejoin="round"/>
</g>
<defs>
<clipPath id="clip0_0_449">
<rect width="17.99" height="17.99" fill="white" transform="translate(0.519287 0.97998)"/>
</clipPath>
</defs>
</svg>
