<svg width="21" height="21" viewBox="0 0 21 21" fill="none" xmlns="http://www.w3.org/2000/svg">
<g clip-path="url(#clip0_0_832)">
<path opacity="0.12" d="M8.47998 2.67993H7.47998C6.07981 2.67993 5.37981 2.67993 4.84498 2.95243C4.3746 3.19211 3.99216 3.57455 3.75248 4.04493C3.47998 4.57976 3.47998 5.27977 3.47998 6.67993V13.6799C3.47998 15.0801 3.47998 15.7801 3.75248 16.3149C3.99215 16.7853 4.37459 17.1678 4.84498 17.4074C5.37981 17.6799 6.07981 17.6799 7.47998 17.6799H8.47998V2.67993Z" fill="#9DA4AE"/>
<path d="M15.5633 9.3466H11.3966M15.5633 12.6799H11.3966M15.5633 6.01326H11.3966M8.47998 2.67993V17.6799M7.47998 2.67993H14.48C15.8801 2.67993 16.5801 2.67993 17.115 2.95243C17.5854 3.1921 17.9678 3.57454 18.2075 4.04493C18.48 4.57976 18.48 5.27977 18.48 6.67993V13.6799C18.48 15.0801 18.48 15.7801 18.2075 16.3149C17.9678 16.7853 17.5854 17.1678 17.115 17.4074C16.5801 17.6799 15.8801 17.6799 14.48 17.6799H7.47998C6.07981 17.6799 5.37981 17.6799 4.84498 17.4074C4.37459 17.1678 3.99215 16.7853 3.75248 16.3149C3.47998 15.7801 3.47998 15.0801 3.47998 13.6799V6.67993C3.47998 5.27977 3.47998 4.57976 3.75248 4.04493C3.99216 3.57455 4.3746 3.19211 4.84498 2.95243C5.37981 2.67993 6.07981 2.67993 7.47998 2.67993Z" stroke="#9DA4AE" stroke-width="1.66667" stroke-linecap="round" stroke-linejoin="round"/>
</g>
<defs>
<clipPath id="clip0_0_832">
<rect width="20" height="20" fill="white" transform="translate(0.97998 0.179932)"/>
</clipPath>
</defs>
</svg>
